<?xml version="1.0" encoding="UTF-8"?>
<!DOCTYPE svg PUBLIC "-//W3C//DTD SVG 1.0//EN" "http://www.w3.org/TR/2001/REC-SVG-20010904/DTD/svg10.dtd">
<!-- Creator: CorelDRAW X8 -->
<svg xmlns="http://www.w3.org/2000/svg" xml:space="preserve" width="218px" height="205px" version="1.0" shape-rendering="geometricPrecision" text-rendering="geometricPrecision" image-rendering="optimizeQuality" fill-rule="evenodd" clip-rule="evenodd"
viewBox="0 0 39848 37471"
 xmlns:xlink="http://www.w3.org/1999/xlink">
 <g id="Слой_x0020_1">
  <metadata id="CorelCorpID_0Corel-Layer"/>
  <path fill="white" d="M25650 809l-11735 0c-1075,0 -1954,1247 -1954,2771l0 0c0,1525 879,2772 1954,2772l11735 0c1075,0 1954,-1247 1954,-2772l0 0c0,-1524 -880,-2771 -1954,-2771z"/>
  <polygon fill="white" points="1044,14573 38790,14573 32775,36662 6795,36662 "/>
  <g id="_441410102544">
   <path fill="#327FB3" fill-rule="nonzero" d="M31157 4390l-2815 0c-109,613 -339,1168 -651,1612 -503,713 -1224,1155 -2041,1156l0 3 -11735 0c-816,0 -1536,-444 -2040,-1158 -312,-442 -541,-998 -649,-1613l-2818 0c-698,0 -1390,742 -1942,1936 -641,1388 -1040,3316 -1040,5448l3 0 0 4c0,468 19,922 54,1358 18,213 39,423 64,628l28471 0c25,-205 46,-416 63,-630 36,-435 55,-888 55,-1356 0,-2138 -398,-4067 -1037,-5451 -553,-1197 -1246,-1941 -1942,-1941l0 4zm-3553 -1618l3553 0 0 3c1386,0 2588,1102 3408,2876 733,1587 1188,3757 1188,6127 0,500 -21,996 -60,1483 -40,490 -101,973 -181,1444l-114 677 -31232 0 -114 -677c-79,-470 -140,-953 -180,-1443 -40,-487 -61,-984 -61,-1484l0 -4 4 0c0,-2373 455,-4542 1185,-6124 821,-1775 2023,-2878 3407,-2878l4359 0 1 809c0,590 164,1118 429,1493 204,289 460,469 719,469l11735 0 0 3c257,0 514,-181 720,-473 262,-372 425,-900 425,-1492l0 -809 809 0z"/>
   <path fill="#3BB163" fill-rule="nonzero" d="M25650 1614l-11735 1 0 3c-259,0 -515,180 -720,470 -262,372 -425,900 -425,1492 0,594 163,1121 425,1494 206,291 463,472 719,472l0 -3 11736 0 0 3c257,0 514,-181 720,-473 262,-372 425,-900 425,-1493 0,-592 -163,-1120 -425,-1492 -206,-292 -463,-474 -720,-474zm-11735 -1611l11735 0c817,0 1538,443 2041,1156 445,632 722,1490 722,2421 0,932 -277,1790 -722,2422 -503,713 -1224,1155 -2041,1156l0 3 -11735 0 -1 -3c-816,0 -1537,-443 -2040,-1156 -445,-631 -722,-1490 -722,-2421 0,-932 277,-1790 722,-2422 504,-715 1225,-1159 2041,-1159l0 3z"/>
   <path fill="#327FB3" fill-rule="nonzero" d="M1044 13764l38804 0c-2151,7902 -4301,15805 -6455,23707l-27221 0 -6172 -23707 1044 0zm36688 1618l-35644 0 5330 20471 24739 0 5575 -20471z"/>
   <path fill="#3BB163" fill-rule="nonzero" d="M34532 18098c445,0 806,360 806,805 0,445 -361,806 -806,806l-9984 -33c-445,0 -806,-361 -806,-806 0,-444 361,-805 806,-805l9984 33z"/>
   <path fill="#3BB163" fill-rule="nonzero" d="M31151 25049c445,0 806,361 806,806 0,445 -361,806 -806,806l-9984 -33c-445,0 -806,-361 -806,-806 0,-445 361,-806 806,-806l9984 33z"/>
   <path fill="#3BB163" fill-rule="nonzero" d="M27470 31995c445,0 806,361 806,806 0,445 -361,806 -806,806l-9984 -33c-445,0 -806,-361 -806,-806 0,-445 361,-806 806,-806l9984 33z"/>
   <path fill="#3BB163" fill-rule="nonzero" d="M16554 16015c248,-369 749,-468 1119,-221 369,248 469,749 221,1119l-4812 7150 4164 -28c445,-1 808,358 809,803 1,190 -65,366 -175,504l-6427 8101c-278,349 -786,407 -1135,129 -349,-277 -407,-785 -129,-1134l5382 -6780 -3979 26c-164,6 -332,-37 -479,-136 -370,-248 -469,-749 -221,-1118l5662 -8415z"/>
  </g>
 </g>
</svg>
