<?xml version="1.0" encoding="UTF-8"?>
<!DOCTYPE svg PUBLIC "-//W3C//DTD SVG 1.0//EN" "http://www.w3.org/TR/2001/REC-SVG-20010904/DTD/svg10.dtd">
<!-- Creator: CorelDRAW X8 -->
<svg xmlns="http://www.w3.org/2000/svg" xml:space="preserve" width="233px" height="211px" version="1.0" shape-rendering="geometricPrecision" text-rendering="geometricPrecision" image-rendering="optimizeQuality" fill-rule="evenodd" clip-rule="evenodd"
viewBox="0 0 59787 54025"
 xmlns:xlink="http://www.w3.org/1999/xlink">
 <g id="Слой_x0020_1">
  <metadata id="CorelCorpID_0Corel-Layer"/>
  <polygon fill="white" points="10764,7605 17842,7605 17842,17636 10764,17636 "/>
  <polygon fill="white" points="42004,7605 49082,7605 49082,17636 42004,17636 "/>
  <rect fill="white" x="4402" y="17636" width="50843" height="35254"/>
  <circle fill="white" cx="16531" cy="35896" r="8154"/>
  <circle fill="white" cx="43146" cy="35896" r="8154"/>
  <g id="_442346026768">
   <path fill="#3BB163" fill-rule="nonzero" d="M10764 6470l8213 0 0 12301 -9348 0 0 -12301 1135 0zm5943 2269l-4808 0 0 7762 4808 0 0 -7762z"/>
   <path fill="#327FB3" fill-rule="nonzero" d="M42004 6470l8213 0 0 12301 -9348 0 0 -12301 1135 0zm5944 2269l-4809 0 0 7762 4809 0 0 -7762z"/>
   <path fill="#3BB163" fill-rule="nonzero" d="M4402 16501l51977 0 0 37524 -53112 0 0 -37524 1135 0zm49708 2270l-48573 0 0 32984 48573 0 0 -32984z"/>
   <path fill="#3BB163" fill-rule="nonzero" d="M16531 26608c2564,0 4887,1040 6568,2721 1680,1680 2720,4003 2720,6568 0,2564 -1040,4887 -2720,6567 -1681,1681 -4004,2721 -6568,2721 -2565,0 -4887,-1040 -6568,-2721 -1681,-1680 -2721,-4003 -2721,-6567 0,-2565 1040,-4888 2721,-6568 1681,-1681 4003,-2721 6568,-2721zm4963 4325c-1270,-1270 -3025,-2056 -4963,-2056 -1939,0 -3694,786 -4964,2056 -1269,1270 -2055,3025 -2055,4964 0,1938 786,3693 2055,4963 1270,1270 3025,2056 4964,2056 1938,0 3693,-786 4963,-2056 1270,-1270 2056,-3025 2056,-4963 0,-1939 -786,-3694 -2056,-4964z"/>
   <path fill="#3BB163" fill-rule="nonzero" d="M17665 39182c0,627 -508,1135 -1134,1135 -627,0 -1135,-508 -1135,-1135l0 -6571c0,-627 508,-1135 1135,-1135 626,0 1134,508 1134,1135l0 6571z"/>
   <path fill="#3BB163" fill-rule="nonzero" d="M13245 37143c-627,0 -1135,-508 -1135,-1135 0,-627 508,-1135 1135,-1135l6571 0c627,0 1135,508 1135,1135 0,627 -508,1135 -1135,1135l-6571 0z"/>
   <path fill="#327FB3" fill-rule="nonzero" d="M43146 26608c2565,0 4887,1040 6568,2721 1681,1680 2721,4003 2721,6568 0,2564 -1040,4887 -2721,6567 -1681,1681 -4003,2721 -6568,2721 -2564,0 -4887,-1040 -6568,-2721 -1680,-1680 -2720,-4003 -2720,-6567 0,-2565 1040,-4888 2720,-6568 1681,-1681 4004,-2721 6568,-2721zm4964 4325c-1270,-1270 -3025,-2056 -4964,-2056 -1938,0 -3694,786 -4963,2056 -1270,1270 -2056,3025 -2056,4964 0,1938 786,3693 2056,4963 1269,1270 3025,2056 4963,2056 1939,0 3694,-786 4964,-2056 1269,-1270 2055,-3025 2055,-4963 0,-1939 -786,-3694 -2055,-4964z"/>
   <path fill="#327FB3" fill-rule="nonzero" d="M39215 37031c-626,0 -1135,-508 -1135,-1135 0,-627 509,-1135 1135,-1135l7862 0c627,0 1135,508 1135,1135 0,627 -508,1135 -1135,1135l-7862 0z"/>
   <path fill="#327FB3" fill-rule="nonzero" d="M57635 640c272,-563 949,-799 1512,-527 562,272 799,949 527,1511l-4413 9154c-272,563 -949,800 -1511,528 -563,-272 -800,-949 -528,-1512l4413 -9154z"/>
   <path fill="#327FB3" fill-rule="nonzero" d="M113 1624c-272,-562 -36,-1239 527,-1511 563,-272 1240,-36 1512,527l4413 9154c272,563 35,1240 -528,1512 -562,272 -1239,35 -1511,-528l-4413 -9154z"/>
   <path fill="#327FB3" fill-rule="nonzero" d="M29166 3842c5,-624 515,-1126 1139,-1121 624,5 1126,515 1122,1139l-77 9554c-4,624 -515,1126 -1139,1122 -624,-5 -1126,-515 -1121,-1139l76 -9555z"/>
  </g>
 </g>
</svg>
