<?xml version="1.0" encoding="UTF-8"?>
<!DOCTYPE svg PUBLIC "-//W3C//DTD SVG 1.0//EN" "http://www.w3.org/TR/2001/REC-SVG-20010904/DTD/svg10.dtd">
<!-- Creator: CorelDRAW X8 -->
<svg xmlns="http://www.w3.org/2000/svg" xml:space="preserve" width="237px" height="211px" version="1.0" shape-rendering="geometricPrecision" text-rendering="geometricPrecision" image-rendering="optimizeQuality" fill-rule="evenodd" clip-rule="evenodd"
viewBox="0 0 158116 140580"
 xmlns:xlink="http://www.w3.org/1999/xlink">
 <g id="Слой_x0020_1">
  <metadata id="CorelCorpID_0Corel-Layer"/>
  <g id="_441407530208">
   <circle fill="white" cx="27236" cy="113344" r="24286"/>
   <circle fill="white" cx="130880" cy="113344" r="24286"/>
   <circle fill="#327FB3" cx="27236" cy="113344" r="6244"/>
   <circle fill="#327FB3" cx="130880" cy="113344" r="6244"/>
   <g>
    <path fill="#3BB163" fill-rule="nonzero" d="M27236 86108c7520,0 14330,3049 19258,7978 4928,4928 7978,11738 7978,19258 0,7520 -3050,14330 -7978,19258 -4928,4928 -11738,7978 -19258,7978 -7520,0 -14330,-3050 -19258,-7978 -4929,-4928 -7978,-11738 -7978,-19258 0,-7520 3049,-14330 7978,-19258 4928,-4929 11738,-7978 19258,-7978zm15087 12149c-3860,-3860 -9195,-6248 -15087,-6248 -5892,0 -11227,2388 -15087,6248 -3860,3860 -6248,9195 -6248,15087 0,5892 2388,11227 6248,15087 3860,3859 9195,6248 15087,6248 5892,0 11227,-2389 15087,-6248 3859,-3860 6248,-9195 6248,-15087 0,-5892 -2389,-11227 -6248,-15087z"/>
    <path fill="#3BB163" fill-rule="nonzero" d="M130880 86108c7520,0 14330,3049 19258,7978 4928,4928 7978,11738 7978,19258 0,7520 -3050,14330 -7978,19258 -4928,4928 -11738,7978 -19258,7978 -7520,0 -14330,-3050 -19258,-7978 -4929,-4928 -7978,-11738 -7978,-19258 0,-7520 3049,-14330 7978,-19258 4928,-4929 11738,-7978 19258,-7978zm15087 12149c-3860,-3860 -9195,-6248 -15087,-6248 -5892,0 -11227,2388 -15087,6248 -3860,3860 -6248,9195 -6248,15087 0,5892 2388,11227 6248,15087 3860,3859 9195,6248 15087,6248 5892,0 11227,-2389 15087,-6248 3859,-3860 6248,-9195 6248,-15087 0,-5892 -2389,-11227 -6248,-15087z"/>
    <path fill="#327FB3" fill-rule="nonzero" d="M27236 116294c-1630,0 -2950,-1321 -2950,-2950 0,-1630 1320,-2951 2950,-2951l64299 0c1629,0 2950,1321 2950,2951 0,1629 -1321,2950 -2950,2950l-64299 0z"/>
    <path fill="#327FB3" fill-rule="nonzero" d="M133830 113344c0,1629 -1321,2950 -2950,2950 -1630,0 -2951,-1321 -2951,-2950l0 -99916 -17005 -7815c-1476,-674 -2126,-2419 -1452,-3895 674,-1476 2419,-2126 3895,-1451l18506 8503c1140,407 1957,1498 1957,2779l0 101795z"/>
    <path fill="#327FB3" fill-rule="nonzero" d="M94428 112920c0,1629 -1321,2950 -2950,2950 -1630,0 -2951,-1321 -2951,-2950 0,-11555 4606,-22141 12193,-30060 7555,-7888 18076,-13120 29941,-14009 1622,-120 3037,1098 3157,2720 121,1622 -1097,3037 -2720,3157 -10370,777 -19553,5338 -26138,12212 -6554,6841 -10532,15990 -10532,25980z"/>
    <path fill="#327FB3" fill-rule="nonzero" d="M34262 13335c-1591,-343 -2602,-1912 -2259,-3503 343,-1591 1912,-2602 3503,-2259l23273 5057c1591,343 2602,1912 2259,3503 -343,1591 -1913,2602 -3503,2259l-23273 -5057z"/>
    <path fill="#327FB3" fill-rule="nonzero" d="M12384 37391c-1591,-344 -2602,-1913 -2259,-3504 343,-1591 1912,-2602 3503,-2259l37064 8054c1591,343 2602,1913 2259,3504 -343,1591 -1913,2602 -3503,2259l-37064 -8054z"/>
    <path fill="#3BB163" fill-rule="nonzero" d="M96055 17885c903,-1348 2731,-1709 4079,-806 1349,903 1710,2731 807,4079l-21166 31451 18822 -124c1622,-6 2944,1305 2950,2927 3,695 -237,1335 -639,1840l-27548 34716c-1012,1273 -2864,1485 -4137,473 -1273,-1011 -1485,-2864 -473,-4137l23735 -29902 -18144 119c-599,24 -1211,-135 -1748,-495 -1348,-903 -1710,-2731 -806,-4079l24268 -36062z"/>
    <path fill="#327FB3" fill-rule="nonzero" d="M13656 67020c-1591,-343 -2602,-1912 -2259,-3503 343,-1591 1913,-2602 3503,-2259l23273 5057c1591,343 2602,1912 2259,3503 -343,1591 -1913,2602 -3503,2259l-23273 -5057z"/>
   </g>
  </g>
 </g>
</svg>
