<?xml version="1.0" encoding="UTF-8"?>
<!DOCTYPE svg PUBLIC "-//W3C//DTD SVG 1.0//EN" "http://www.w3.org/TR/2001/REC-SVG-20010904/DTD/svg10.dtd">
<!-- Creator: CorelDRAW X8 -->
<svg xmlns="http://www.w3.org/2000/svg" xml:space="preserve" width="248px" height="220px" version="1.0" shape-rendering="geometricPrecision" text-rendering="geometricPrecision" image-rendering="optimizeQuality" fill-rule="evenodd" clip-rule="evenodd"
viewBox="0 0 73474 65240"
 xmlns:xlink="http://www.w3.org/1999/xlink">
 <g id="Слой_x0020_1">
  <metadata id="CorelCorpID_0Corel-Layer"/>
  <g id="_441492654928">
   <circle fill="white" cx="60857" cy="52622" r="11303"/>
   <circle fill="#327FB3" cx="60857" cy="52622" r="2906"/>
   <polygon fill="white" points="12937,43860 12614,32234 19641,40894 32785,44344 31654,49537 12937,49537 "/>
   <circle fill="white" cx="8681" cy="56559" r="7366"/>
   <circle fill="#327FB3" cx="8681" cy="56559" r="1894"/>
   <g>
    <path fill="#3BB163" fill-rule="nonzero" d="M60857 40004c3483,0 6638,1413 8922,3696 2283,2283 3695,5438 3695,8922 0,3484 -1412,6639 -3695,8922 -2284,2283 -5439,3696 -8922,3696 -3484,0 -6639,-1413 -8922,-3696 -2284,-2283 -3696,-5438 -3696,-8922 0,-3484 1412,-6639 3696,-8922 2283,-2283 5438,-3696 8922,-3696zm7063 5555c-1808,-1807 -4305,-2925 -7063,-2925 -2759,0 -5256,1118 -7063,2925 -1807,1807 -2926,4305 -2926,7063 0,2759 1119,5256 2926,7063 1807,1807 4304,2925 7063,2925 2758,0 5255,-1118 7063,-2925 1807,-1807 2925,-4304 2925,-7063 0,-2758 -1118,-5256 -2925,-7063z"/>
    <path fill="#327FB3" fill-rule="nonzero" d="M9711 57874c-726,0 -1315,-589 -1315,-1315 0,-726 589,-1314 1315,-1314l26461 0 10647 -20944c186,-366 520,-607 892,-688l6166 -1877c692,-210 1424,181 1634,873 209,691 -182,1423 -873,1633l-5727 1743 -10737 21118c-206,455 -665,771 -1197,771l-27266 0z"/>
    <path fill="#327FB3" fill-rule="nonzero" d="M62125 52283c187,700 -229,1420 -929,1607 -701,188 -1421,-229 -1608,-929l-11667 -43256 -6752 -3214c-655,-312 -934,-1096 -622,-1751 312,-655 1096,-934 1751,-622l7298 3473c334,161 600,461 704,847l11825 43845z"/>
    <path fill="#327FB3" fill-rule="nonzero" d="M11624 43785l-320 -11515c-19,-723 551,-1326 1274,-1345 423,-12 804,178 1052,483l6757 8325 12731 3343c682,179 1096,863 949,1545l-1129 5193c-133,616 -678,1037 -1284,1037l-18717 1c-727,0 -1315,-589 -1315,-1315l2 -5752zm2407 -7725l212 7651 8 149 0 4362 16345 0 637 -2929 -11926 -3131c-259,-70 -500,-218 -683,-442l-4593 -5660z"/>
    <path fill="#3BB163" fill-rule="nonzero" d="M8681 47878c2394,0 4563,972 6134,2543l4 0c1571,1570 2543,3741 2543,6138 0,2397 -972,4568 -2543,6138 -1570,1571 -3741,2543 -6138,2543 -2396,0 -4567,-972 -6138,-2543l0 -5c-1571,-1570 -2543,-3739 -2543,-6133 0,-2393 972,-4563 2543,-6133l5 -5c1570,-1571 3740,-2543 6133,-2543zm4280 4400c-1092,-1094 -2607,-1770 -4280,-1770 -1673,0 -3187,676 -4282,1769 -1093,1094 -1769,2609 -1769,4282 0,1673 676,3188 1769,4282 1097,1092 2611,1769 4282,1769 1671,0 3185,-677 4279,-1772 1095,-1094 1772,-2608 1772,-4279 0,-1671 -677,-3185 -1771,-4281z"/>
    <path fill="#327FB3" fill-rule="nonzero" d="M25689 49568c-17,-723 555,-1324 1278,-1341 723,-17 1324,556 1341,1279l167 7022c17,723 -556,1324 -1279,1341 -723,17 -1323,-556 -1340,-1279l-167 -7022z"/>
    <path fill="#3BB163" fill-rule="nonzero" d="M38464 14045c403,-601 1217,-762 1818,-360 601,403 762,1217 359,1818l-5252 7804 4189 -27c723,-3 1312,581 1314,1304 2,310 -105,595 -284,820l-7531 9492c-450,567 -1276,661 -1844,210 -567,-450 -661,-1276 -210,-1843l5831 -7346 -3886 25c-267,10 -540,-60 -779,-221 -601,-402 -762,-1217 -360,-1818l6635 -9858z"/>
    <path fill="#327FB3" fill-rule="nonzero" d="M13182 15064c-709,-153 -1159,-852 -1006,-1561 153,-709 852,-1160 1561,-1007l10372 2254c709,153 1159,852 1006,1561 -152,709 -852,1159 -1561,1007l-10372 -2254z"/>
    <path fill="#327FB3" fill-rule="nonzero" d="M4376 25244c-708,-153 -1159,-853 -1006,-1562 153,-708 852,-1159 1561,-1006l16518 3589c709,153 1160,853 1007,1561 -153,709 -853,1160 -1562,1007l-16518 -3589z"/>
    <path fill="#327FB3" fill-rule="nonzero" d="M11989 2598c-709,-153 -1160,-853 -1007,-1562 153,-709 852,-1159 1561,-1006l16518 3589c709,153 1160,852 1007,1561 -153,709 -853,1160 -1562,1007l-16517 -3589z"/>
   </g>
  </g>
 </g>
</svg>
