<?xml version="1.0" encoding="UTF-8"?>
<!DOCTYPE svg PUBLIC "-//W3C//DTD SVG 1.0//EN" "http://www.w3.org/TR/2001/REC-SVG-20010904/DTD/svg10.dtd">
<!-- Creator: CorelDRAW X8 -->
<svg xmlns="http://www.w3.org/2000/svg" xml:space="preserve" width="256px" height="228px" version="1.0" shape-rendering="geometricPrecision" text-rendering="geometricPrecision" image-rendering="optimizeQuality" fill-rule="evenodd" clip-rule="evenodd"
viewBox="0 0 86116 76682"
 xmlns:xlink="http://www.w3.org/1999/xlink">
 <g id="Слой_x0020_1">
  <metadata id="CorelCorpID_0Corel-Layer"/>
  <path fill="white" d="M52294 31293l18464 0c890,0 1617,727 1617,1617l0 16308c0,889 -727,1616 -1617,1616l-31914 0c-5373,0 -9770,-4396 -9770,-9770l0 -8154c0,-828 629,-1515 1433,-1606l0 2728 21190 0 597 -2739z"/>
  <circle fill="white" cx="20083" cy="62940" r="12253"/>
  <circle fill="white" cx="72375" cy="62940" r="12253"/>
  <circle fill="#327FB3" cx="20083" cy="62940" r="3151"/>
  <circle fill="#327FB3" cx="72375" cy="62940" r="3151"/>
  <polygon fill="white" points="30507,27606 30142,14444 38097,24247 52977,28154 51697,34032 30507,34032 "/>
  <g id="_441329487296">
   <path fill="#327FB3" fill-rule="nonzero" d="M52294 29804l18464 0c856,0 1633,350 2194,911 562,562 911,1339 911,2195l0 16308c0,855 -349,1632 -911,2194 -561,562 -1338,911 -2194,911l-31914 0c-3093,0 -5907,-1267 -7947,-3306l-5 0c-2040,-2040 -3307,-4856 -3307,-7953l0 -8154c0,-784 301,-1508 792,-2060l-3 -3c494,-554 1189,-931 1970,-1020l1652 -189 0 2906 18503 0 597 -2740 1198 0zm18464 2977l-17266 0 -597 2740 -22332 0 0 5543c0,2276 932,4347 2433,5848 1499,1503 3570,2434 5848,2434l31914 0c34,0 66,-15 90,-39 23,-23 38,-55 38,-89l0 -16308c0,-34 -15,-67 -38,-90 -24,-23 -56,-39 -90,-39z"/>
   <path fill="#3BB163" fill-rule="nonzero" d="M20083 49199c3794,0 7230,1539 9717,4025 2486,2486 4025,5922 4025,9716 0,3794 -1539,7230 -4025,9717 -2487,2486 -5923,4025 -9717,4025 -3794,0 -7230,-1539 -9716,-4025 -2487,-2487 -4025,-5923 -4025,-9717 0,-3794 1538,-7230 4025,-9716 2486,-2486 5922,-4025 9716,-4025zm7612 6130c-1947,-1948 -4639,-3153 -7612,-3153 -2972,0 -5664,1205 -7611,3153 -1948,1947 -3153,4639 -3153,7611 0,2973 1205,5665 3153,7612 1947,1948 4639,3153 7611,3153 2973,0 5665,-1205 7612,-3153 1947,-1947 3153,-4639 3153,-7612 0,-2972 -1206,-5664 -3153,-7611z"/>
   <path fill="#3BB163" fill-rule="nonzero" d="M72375 49199c3794,0 7230,1539 9716,4025 2487,2486 4025,5922 4025,9716 0,3794 -1538,7230 -4025,9717 -2486,2486 -5922,4025 -9716,4025 -3794,0 -7230,-1539 -9716,-4025 -2487,-2487 -4025,-5923 -4025,-9717 0,-3794 1538,-7230 4025,-9716 2486,-2486 5922,-4025 9716,-4025zm7612 6130c-1948,-1948 -4639,-3153 -7612,-3153 -2973,0 -5665,1205 -7612,3153 -1947,1947 -3152,4639 -3152,7611 0,2973 1205,5665 3152,7612 1947,1948 4639,3153 7612,3153 2973,0 5664,-1205 7612,-3153 1947,-1947 3152,-4639 3152,-7612 0,-2972 -1205,-5664 -3152,-7611z"/>
   <path fill="#327FB3" fill-rule="nonzero" d="M21205 63911c-535,620 -1473,687 -2093,151 -619,-535 -687,-1473 -151,-2093l12263 -14153c536,-620 1473,-687 2093,-151 620,536 687,1473 151,2093l-12263 14153z"/>
   <path fill="#327FB3" fill-rule="nonzero" d="M73863 62940c0,822 -666,1489 -1488,1489 -822,0 -1489,-667 -1489,-1489l0 -50411 -8580 -3942c-744,-340 -1072,-1221 -732,-1965 340,-745 1221,-1073 1965,-733l9337 4291c575,205 987,755 987,1402l0 51358z"/>
   <path fill="#327FB3" fill-rule="nonzero" d="M29021 27521l-362 -13036c-22,-819 623,-1501 1442,-1524 479,-13 911,202 1192,547l7649 9426 14413 3784c772,203 1240,977 1073,1750l-1277 5878c-151,698 -768,1174 -1454,1174l-21190 1c-822,0 -1489,-667 -1489,-1489l3 -6511zm2725 -8746l240 8662 10 169 0 4938 18503 0 722 -3316 -13502 -3545c-293,-79 -566,-246 -773,-500l-5200 -6408z"/>
   <path fill="#327FB3" fill-rule="nonzero" d="M11143 17054c-803,-173 -1313,-965 -1140,-1767 173,-803 965,-1313 1768,-1140l11741 2551c803,173 1313,965 1140,1768 -173,802 -965,1312 -1767,1139l-11742 -2551z"/>
   <path fill="#327FB3" fill-rule="nonzero" d="M1173 28579c-802,-173 -1312,-965 -1139,-1768 173,-803 965,-1313 1767,-1140l18700 4064c803,173 1313,965 1140,1768 -173,802 -965,1312 -1768,1139l-18700 -4063z"/>
   <path fill="#327FB3" fill-rule="nonzero" d="M9791 2941c-803,-173 -1313,-965 -1140,-1768 173,-802 965,-1312 1768,-1139l18700 4063c803,173 1313,965 1140,1768 -174,802 -965,1313 -1768,1139l-18700 -4063z"/>
  </g>
 </g>
</svg>
