<svg fill="#2ba3de" height="512pt" viewBox="-34 0 511 512" width="512pt" xmlns="http://www.w3.org/2000/svg"><path d="m377.785156 272.902344c-38.15625-38.160156-87.816406-60.636719-141.15625-64.214844v-193.570312c0-8.347657-6.769531-15.117188-15.121094-15.117188-8.347656 0-15.117187 6.769531-15.117187 15.117188v193.570312c-53.339844 3.578125-103 26.054688-141.15625 64.210938-41.746094 41.742187-64.734375 97.246093-64.734375 156.277343 0 8.351563 6.769531 15.121094 15.117188 15.121094h126.722656c7.128906 38.46875 40.910156 67.703125 81.414062 67.703125s74.285156-29.234375 81.414063-67.703125h122.234375c8.347656 0 15.117187-6.769531 15.117187-15.121094 0-59.03125-22.988281-114.53125-64.734375-156.273437zm-154.03125 208.863281c-23.742187 0-43.859375-15.816406-50.367187-37.46875h100.734375c-6.507813 21.652344-26.625 37.46875-50.367188 37.46875zm-192.421875-67.707031c7.726563-98.15625 90.070313-175.652344 190.175781-175.652344 100.109376 0 182.453126 77.496094 190.179688 175.652344zm0 0"/></svg>