<?xml version="1.0" encoding="UTF-8"?>
<!DOCTYPE svg PUBLIC "-//W3C//DTD SVG 1.0//EN" "http://www.w3.org/TR/2001/REC-SVG-20010904/DTD/svg10.dtd">
<!-- Creator: CorelDRAW X8 -->
<svg xmlns="http://www.w3.org/2000/svg" xml:space="preserve" width="221px" height="238px" version="1.0" shape-rendering="geometricPrecision" text-rendering="geometricPrecision" image-rendering="optimizeQuality" fill-rule="evenodd" clip-rule="evenodd"
viewBox="0 0 70068 75309"
 xmlns:xlink="http://www.w3.org/1999/xlink">
 <g id="Слой_x0020_1">
  <metadata id="CorelCorpID_0Corel-Layer"/>
  <path fill="white" d="M21396 19818l27245 0 7433 17200c-984,-298 -2027,-459 -3106,-459l-35868 0c-1202,0 -2359,199 -3441,566l7737 -17307z"/>
  <path fill="white" d="M10320 55721l-3336 0c432,-673 1070,-1202 1823,-1495 455,546 962,1047 1513,1495zm10651 5537l0 8861c0,2083 -1705,3788 -3788,3788l-7009 0c-2084,0 -3788,-1705 -3788,-3788l0 -8861 14585 0z"/>
  <path fill="white" d="M61261 54226c753,294 1391,823 1823,1495l-3336 0c551,-448 1058,-949 1513,-1495zm2421 7032l0 8861c0,2083 -1705,3788 -3788,3788l-7009 0c-2084,0 -3788,-1705 -3788,-3788l0 -8861 14585 0z"/>
  <rect fill="white" x="54379" y="25848" width="13245" height="7733" rx="3440" ry="913"/>
  <rect fill="white" x="2591" y="25848" width="13245" height="7733" rx="3440" ry="913"/>
  <path fill="white" d="M17100 36559l35868 0c5933,0 10787,4854 10787,10787l0 1c0,3370 -1567,6392 -4007,8374l-49428 0c-2441,-1982 -4007,-5004 -4007,-8374l0 -1c0,-5933 4854,-10787 10787,-10787z"/>
  <circle fill="white" cx="51999" cy="45935" r="4018"/>
  <circle fill="white" cx="18069" cy="45935" r="4018"/>
  <rect fill="white" x="1402" y="55721" width="67264" height="5537" rx="17471" ry="654"/>
  <g id="_441402767552">
   <path fill="#327FB3" fill-rule="nonzero" d="M21396 18416l28160 0 8996 20817 -2883 -873c-439,-133 -885,-234 -1332,-300 -440,-65 -898,-99 -1369,-99l-35868 0c-532,0 -1041,41 -1521,120 -499,82 -992,207 -1471,370l-3033 1030 9417 -21065 904 0zm26330 2804l-25426 0 -6252 13984c351,-31 702,-47 1052,-47l35868 0c265,0 529,9 793,27l-6035 -13964z"/>
   <path fill="#3BB163" fill-rule="nonzero" d="M10320 57123l-5899 0 1386 -2158c298,-464 666,-878 1085,-1221 412,-338 888,-618 1411,-821l934 -364 644 774c189,228 399,456 626,680 225,222 457,430 695,624l3057 2486 -3939 0zm12052 4135l0 8861c0,1428 -583,2727 -1523,3666 -940,940 -2238,1524 -3666,1524l-7009 0c-1428,0 -2727,-584 -3666,-1524 -940,-939 -1524,-2238 -1524,-3666l0 -10263 17388 0 0 1402zm-2803 8861l0 -7459 -11781 0 0 7459c0,655 269,1251 702,1684 433,433 1029,702 1684,702l7009 0c655,0 1251,-269 1684,-702 432,-433 702,-1029 702,-1684z"/>
   <path fill="#3BB163" fill-rule="nonzero" d="M61765 52923c513,200 989,480 1408,824l3 -3c419,344 787,756 1085,1221l1386 2158 -9839 0 3058 -2486c238,-194 470,-402 695,-624 227,-224 437,-452 626,-680l644 -774 934 364zm3319 8335l0 8861c0,1428 -584,2727 -1524,3666 -939,940 -2238,1524 -3666,1524l-7009 0c-1428,0 -2727,-584 -3666,-1524 -940,-939 -1524,-2238 -1524,-3666l0 -10263 17389 0 0 1402zm-2804 8861l0 -7459 -11781 0 0 7459c0,655 269,1251 702,1684 432,433 1029,702 1684,702l7009 0c655,0 1251,-269 1684,-702 433,-433 702,-1029 702,-1684z"/>
   <path fill="#327FB3" fill-rule="nonzero" d="M56387 24447l9229 0c939,0 1793,383 2410,1000 617,617 1000,1470 1000,2410l0 3716c0,940 -383,1792 -1000,2410 -617,617 -1471,1000 -2410,1000l-9229 0c-935,0 -1786,-383 -2404,-1000l-5 -6c-617,-617 -1001,-1468 -1001,-2404l0 -3716c0,-935 384,-1787 1001,-2405l5 -5c618,-617 1469,-1000 2404,-1000zm9229 2804l-9229 0c-166,0 -317,66 -427,173l-5 5c-107,110 -174,261 -174,428l0 3716c0,167 67,318 174,427l5 6c110,107 261,173 427,173l9229 0c166,0 317,-69 427,-179 111,-110 179,-262 179,-427l0 -3716c0,-166 -68,-317 -179,-428 -110,-110 -261,-178 -427,-178z"/>
   <path fill="#327FB3" fill-rule="nonzero" d="M4598 24447l9230 0c933,0 1785,383 2404,1000l5 6c618,619 1001,1471 1001,2404l0 3716c0,933 -383,1785 -1001,2404l-5 5c-619,618 -1471,1001 -2404,1001l-9230 0c-932,0 -1784,-383 -2403,-1001l-6 -5c-617,-619 -1001,-1471 -1001,-2404l0 -3716c0,-933 384,-1785 1001,-2404l6 -6c619,-617 1471,-1000 2403,-1000zm9230 2804l-9230 0c-168,0 -320,67 -426,173l-6 6c-107,107 -174,258 -174,427l0 3716c0,168 67,320 174,427l6 5c106,107 258,174 426,174l9230 0c169,0 320,-67 427,-174l5 -5c107,-107 174,-259 174,-427l0 -3716c0,-169 -67,-320 -174,-427l-5 -6c-107,-106 -258,-173 -427,-173z"/>
   <path fill="#3BB163" fill-rule="nonzero" d="M17100 35157l35868 0c3353,0 6401,1371 8609,3580 2209,2208 3580,5256 3580,8609 0,1860 -428,3635 -1191,5228 -788,1648 -1936,3093 -3337,4231l-391 318 -50408 0 -392 -318c-1400,-1138 -2548,-2583 -3336,-4231 -763,-1593 -1191,-3368 -1191,-5227 0,-3354 1371,-6402 3580,-8610 2208,-2209 5256,-3580 8609,-3580zm35868 2804l-35868 0c-2579,0 -4926,1056 -6627,2758 -1702,1701 -2758,4048 -2758,6627 0,1446 326,2811 906,4023 536,1121 1292,2124 2209,2950l48408 0c917,-826 1673,-1829 2209,-2950 580,-1212 906,-2577 906,-4022 0,-2580 -1057,-4927 -2758,-6628 -1701,-1702 -4048,-2758 -6627,-2758z"/>
   <path fill="#3BB163" fill-rule="nonzero" d="M51999 40515c1496,0 2852,607 3832,1588 981,981 1588,2336 1588,3832 0,1497 -607,2852 -1588,3832 -980,981 -2336,1588 -3832,1588 -1496,0 -2851,-607 -3832,-1588 -981,-980 -1588,-2335 -1588,-3832 0,-1496 607,-2851 1588,-3832 981,-981 2336,-1588 3832,-1588zm1850 3570c-473,-473 -1127,-766 -1850,-766 -722,0 -1377,293 -1850,766 -473,473 -766,1128 -766,1850 0,723 293,1377 766,1850 473,473 1128,766 1850,766 723,0 1377,-293 1850,-766 473,-473 766,-1127 766,-1850 0,-722 -293,-1377 -766,-1850z"/>
   <path fill="#3BB163" fill-rule="nonzero" d="M18069 40515c1496,0 2851,607 3832,1588 981,981 1588,2336 1588,3832 0,1497 -607,2852 -1588,3832 -981,981 -2336,1588 -3832,1588 -1497,0 -2852,-607 -3833,-1588 -980,-980 -1588,-2335 -1588,-3832 0,-1496 608,-2851 1588,-3832 981,-981 2336,-1588 3833,-1588zm1850 3570c-473,-473 -1128,-766 -1850,-766 -723,0 -1378,293 -1851,766 -473,473 -766,1128 -766,1850 0,723 293,1377 766,1850 473,473 1128,766 1851,766 722,0 1377,-293 1850,-766 473,-473 766,-1127 766,-1850 0,-722 -293,-1377 -766,-1850z"/>
   <path fill="#327FB3" fill-rule="nonzero" d="M2839 54319l64389 0c782,0 1493,319 2007,833 514,514 833,1224 833,2007l0 2661c0,782 -319,1493 -833,2007 -514,514 -1225,833 -2007,833l-64389 0c-782,0 -1492,-319 -2006,-833 -514,-514 -833,-1225 -833,-2007l0 -2661c0,-783 319,-1493 833,-2007 514,-514 1224,-833 2006,-833zm64389 2804l-64389 0 -24 11 -11 25 0 2661 11 24 24 12 64389 0 24 -12 12 -24 0 -2661 -12 -25 -24 -11z"/>
   <path fill="#327FB3" fill-rule="nonzero" d="M29218 50650c0,774 -628,1402 -1402,1402 -774,0 -1402,-628 -1402,-1402l0 -8768c0,-774 628,-1402 1402,-1402 774,0 1402,628 1402,1402l0 8768z"/>
   <path fill="#327FB3" fill-rule="nonzero" d="M36436 50650c0,774 -628,1402 -1402,1402 -775,0 -1402,-628 -1402,-1402l0 -8768c0,-774 627,-1402 1402,-1402 774,0 1402,628 1402,1402l0 8768z"/>
   <path fill="#327FB3" fill-rule="nonzero" d="M43653 50650c0,774 -627,1402 -1402,1402 -774,0 -1402,-628 -1402,-1402l0 -8768c0,-774 628,-1402 1402,-1402 775,0 1402,628 1402,1402l0 8768z"/>
   <path fill="#327FB3" fill-rule="nonzero" d="M60973 4355c335,-695 1172,-987 1867,-652 695,336 987,1172 652,1868l-5452 11309c-336,695 -1172,987 -1868,652 -695,-336 -987,-1172 -651,-1868l5452 -11309z"/>
   <path fill="#327FB3" fill-rule="nonzero" d="M7456 5571c-335,-696 -43,-1532 652,-1868 695,-335 1532,-43 1867,652l5452 11309c336,696 44,1532 -651,1868 -696,335 -1532,43 -1868,-652l-5452 -11309z"/>
   <path fill="#327FB3" fill-rule="nonzero" d="M33716 1386c6,-771 636,-1392 1407,-1386 771,6 1392,637 1386,1408l-94 11803c-6,771 -637,1392 -1408,1386 -770,-6 -1391,-636 -1385,-1407l94 -11804z"/>
  </g>
 </g>
</svg>
