<?xml version="1.0" encoding="UTF-8"?>
<!DOCTYPE svg PUBLIC "-//W3C//DTD SVG 1.0//EN" "http://www.w3.org/TR/2001/REC-SVG-20010904/DTD/svg10.dtd">
<!-- Creator: CorelDRAW X8 -->
<svg xmlns="http://www.w3.org/2000/svg" xml:space="preserve" width="233px" height="219px" version="1.0" shape-rendering="geometricPrecision" text-rendering="geometricPrecision" image-rendering="optimizeQuality" fill-rule="evenodd" clip-rule="evenodd"
viewBox="0 0 34030 31898"
 xmlns:xlink="http://www.w3.org/1999/xlink">
 <g id="Слой_x0020_1">
  <metadata id="CorelCorpID_0Corel-Layer"/>
  <path fill="white" d="M22488 27168c6056,-2131 10896,-5748 10896,-11879l0 -12673c0,-1084 -903,-1970 -2006,-1970l-17804 0c-1103,0 -2006,886 -2006,1970l0 12673c0,1184 193,2284 545,3300 572,-165 1176,-254 1801,-254 3568,0 6459,2891 6459,6458 0,517 -61,1020 -175,1501 746,328 1513,620 2290,874z"/>
  <path fill="white" d="M22485 23720c4481,-1577 8063,-4254 8063,-8791l0 -9377c0,-802 -668,-1458 -1485,-1458l-13174 0c-816,0 -1484,656 -1484,1458l0 9377c0,1328 327,2511 896,3555 2219,486 4011,2112 4731,4233 784,393 1611,727 2453,1003z"/>
  <circle fill="white" cx="13914" cy="24793" r="6459"/>
  <g id="_441402779872">
   <path fill="#327FB3" fill-rule="nonzero" d="M22482 26487c2861,-1028 5424,-2397 7274,-4218 1846,-1818 2982,-4105 2982,-6980l0 -12673c0,-363 -151,-693 -395,-932 -246,-242 -588,-392 -965,-392l-17804 0c-377,0 -719,150 -965,392 -244,239 -395,569 -395,932l0 12673c0,555 43,1083 126,1585 54,325 123,641 208,948 122,-24 244,-44 367,-62 333,-47 667,-71 999,-71 1962,0 3738,795 5024,2081 1286,1285 2081,3062 2081,5023 0,277 -17,554 -49,830 -11,96 -24,190 -39,283 205,85 412,167 620,246 312,119 623,231 931,335zm8177 -3300c-2041,2010 -4848,3494 -7959,4589l-206 72 -205 -67c-409,-134 -809,-275 -1197,-423 -388,-148 -773,-306 -1154,-473l-493 -217 125 -523c52,-221 92,-445 118,-668 26,-220 40,-448 40,-684 0,-1605 -651,-3059 -1703,-4110 -1052,-1052 -2505,-1703 -4111,-1703 -285,0 -560,20 -822,57 -276,39 -543,96 -800,170l-586 170 -201 -578c-191,-553 -338,-1126 -436,-1718 -96,-583 -147,-1181 -147,-1792l0 -12673c0,-720 301,-1376 784,-1850 481,-473 1142,-766 1868,-766l17804 0c726,0 1388,293 1868,766 484,474 784,1130 784,1850l0 12673c0,3256 -1284,5843 -3371,7898z"/>
   <path fill="#3BB163" fill-rule="nonzero" d="M22479 23038c2073,-750 3928,-1745 5266,-3063 1335,-1314 2157,-2968 2157,-5046l0 -9377c0,-222 -93,-424 -242,-570 -152,-149 -363,-242 -597,-242l-13174 0c-234,0 -445,93 -597,242 -149,146 -242,348 -242,570l0 9377c0,597 72,1159 205,1687 116,461 278,898 481,1310 1096,290 2090,838 2912,1574 837,748 1495,1690 1903,2755 300,145 604,280 910,405 323,132 663,258 1018,378zm6169 -2144c-1529,1505 -3628,2616 -5951,3434l-206 72 -206 -67c-425,-139 -862,-300 -1308,-483 -423,-172 -835,-359 -1232,-558l-239 -120 -84 -248c-326,-960 -894,-1807 -1631,-2466 -731,-653 -1630,-1125 -2627,-1343l-287 -63 -141 -260c-318,-584 -567,-1205 -733,-1863 -159,-632 -244,-1299 -244,-2000l0 -9377c0,-579 241,-1107 630,-1488 386,-380 918,-616 1500,-616l13174 0c583,0 1114,236 1500,616 389,381 630,909 630,1488l0 9377c0,2459 -969,4413 -2545,5965z"/>
   <path fill="#3BB163" fill-rule="nonzero" d="M19133 12551c-173,-310 -61,-702 250,-875 310,-172 702,-61 875,250l869 1557 3613 -4859c212,-285 615,-345 901,-133 285,211 345,615 133,900l-4207 5658c-53,72 -122,134 -204,180 -311,172 -703,60 -876,-250l-1354 -2428z"/>
   <path fill="#327FB3" fill-rule="nonzero" d="M13914 17689c1962,0 3738,795 5024,2081 1286,1285 2081,3062 2081,5023 0,1962 -795,3738 -2081,5024 -1286,1286 -3062,2081 -5024,2081 -1961,0 -3738,-795 -5023,-2081 -1286,-1286 -2081,-3062 -2081,-5024 0,-1961 795,-3738 2081,-5023 1285,-1286 3062,-2081 5023,-2081zm4111 2994c-1052,-1052 -2505,-1703 -4111,-1703 -1605,0 -3058,651 -4110,1703 -1052,1052 -1703,2505 -1703,4110 0,1606 651,3059 1703,4111 1052,1052 2505,1702 4110,1702 1606,0 3059,-650 4111,-1702 1052,-1052 1703,-2505 1703,-4111 0,-1605 -651,-3059 -1703,-4110z"/>
   <path fill="#3BB163" fill-rule="nonzero" d="M12783 21252c0,-355 288,-643 643,-643 355,0 643,288 643,643l-10 3530 2802 2253c277,223 322,629 99,906 -223,277 -629,321 -906,98l-3042 -2446c-146,-118 -240,-299 -240,-502l11 -3839z"/>
   <path fill="#327FB3" fill-rule="nonzero" d="M4753 13710c-329,-137 -485,-514 -348,-843 136,-329 514,-485 842,-348l4418 1832c329,136 484,514 348,842 -137,329 -514,485 -843,348l-4417 -1831z"/>
   <path fill="#327FB3" fill-rule="nonzero" d="M1341 18708c-327,-137 -480,-515 -343,-842 138,-327 516,-481 843,-343l4428 1873c327,138 481,515 343,842 -138,328 -515,481 -842,344l-4429 -1874z"/>
   <path fill="#327FB3" fill-rule="nonzero" d="M398 24577c-329,-136 -485,-514 -348,-842 136,-329 513,-485 842,-348l4418 1831c328,137 484,514 348,843 -137,329 -514,485 -843,348l-4417 -1832z"/>
  </g>
 </g>
</svg>
