<?xml version="1.0" encoding="UTF-8"?>
<!DOCTYPE svg PUBLIC "-//W3C//DTD SVG 1.0//EN" "http://www.w3.org/TR/2001/REC-SVG-20010904/DTD/svg10.dtd">
<!-- Creator: CorelDRAW X8 -->
<svg xmlns="http://www.w3.org/2000/svg" xml:space="preserve" width="222px" height="201px" version="1.0" shape-rendering="geometricPrecision" text-rendering="geometricPrecision" image-rendering="optimizeQuality" fill-rule="evenodd" clip-rule="evenodd"
viewBox="0 0 28424 25781"
 xmlns:xlink="http://www.w3.org/1999/xlink">
 <g id="Слой_x0020_1">
  <metadata id="CorelCorpID_0Corel-Layer"/>
  <g id="_441407498592">
   <path fill="white" d="M7958 12470l19898 0 0 12742 -19898 0 0 -2719 1186 0c1102,0 1995,-893 1995,-1995 0,-225 -38,-449 -112,-661l-1701 -4858c-83,-238 -312,-395 -572,-395l-796 15 0 -2129z"/>
   <path fill="#327FB3" fill-rule="nonzero" d="M7958 11902l20466 0 0 13878c-7011,2 -14023,2 -21034,0l0 -13878 568 0zm19331 1136l-18763 0 0 11607 18763 0 0 -11607z"/>
   <path fill="#327FB3" fill-rule="nonzero" d="M7640 12940c-259,-175 -328,-528 -152,-787 175,-260 527,-329 787,-153l9622 6496c260,175 328,528 153,787 -51,76 -117,135 -192,177l-9592 6227c-262,170 -613,96 -783,-166 -170,-262 -96,-613 166,-783l8905 -5781 -8914 -6017z"/>
   <path fill="#327FB3" fill-rule="nonzero" d="M27539 12000c260,-176 612,-107 788,153 175,259 106,612 -153,787l-8914 6017 8905 5781c262,170 336,521 166,783 -170,262 -521,336 -783,166l-9592 -6227c-75,-42 -141,-101 -192,-177 -175,-259 -107,-612 153,-787l9622 -6496z"/>
   <path fill="#3BB163" d="M8756 7913c252,-2 478,-157 562,-395l1709 -4862c74,-212 112,-436 112,-661 0,-1102 -893,-1995 -1997,-1995l-1245 0c-2730,0 -5210,1595 -6341,4079 -1024,2248 -1556,4697 -1556,7168 0,2471 532,4919 1556,7168 1131,2484 3611,4078 6345,4078l1243 0c1102,0 1995,-893 1995,-1995 0,-225 -38,-449 -112,-661l-1701 -4858c-83,-238 -312,-395 -572,-395l-2307 43 -99 -231c-420,-986 -638,-2049 -638,-3120 0,-1071 218,-2134 637,-3120l96 -225 2313 -18z"/>
   <path fill="white" d="M5282 7535c-518,1160 -779,2421 -779,3690 0,1239 253,2469 741,3603l48 110c221,516 729,851 1291,851 11,0 21,0 32,0l1727 -32 1558 4452c30,86 46,178 46,270 0,447 -363,810 -812,810l-1233 0c-2264,0 -4320,-1324 -5259,-3384 -955,-2095 -1449,-4373 -1449,-6676 0,-2301 490,-4582 1448,-6675 940,-2055 2998,-3369 5260,-3369l1239 0c447,0 810,363 810,810 0,93 -16,184 -46,270l-1560 4463 -1811 0c-538,0 -1032,315 -1251,807z"/>
   <path fill="#327FB3" fill-rule="nonzero" d="M18432 985c312,-4 568,247 572,559 4,312 -247,568 -559,572l-4479 53c-312,4 -569,-246 -572,-558 -4,-313 246,-569 559,-573l4479 -53z"/>
   <path fill="#327FB3" fill-rule="nonzero" d="M21029 4847c312,-4 569,247 572,559 4,312 -246,568 -559,572l-6508 86c-312,3 -569,-247 -572,-559 -4,-313 246,-569 558,-573l6509 -85z"/>
   <path fill="#327FB3" fill-rule="nonzero" d="M17696 8743c313,-4 569,246 573,558 3,313 -247,569 -559,573l-4479 53c-313,4 -569,-247 -573,-559 -3,-312 247,-568 559,-572l4479 -53z"/>
  </g>
 </g>
</svg>
