<?xml version="1.0" encoding="UTF-8"?>
<!DOCTYPE svg PUBLIC "-//W3C//DTD SVG 1.0//EN" "http://www.w3.org/TR/2001/REC-SVG-20010904/DTD/svg10.dtd">
<!-- Creator: CorelDRAW X8 -->
<svg xmlns="http://www.w3.org/2000/svg" xml:space="preserve" width="268px" height="244px" version="1.0" shape-rendering="geometricPrecision" text-rendering="geometricPrecision" image-rendering="optimizeQuality" fill-rule="evenodd" clip-rule="evenodd"
viewBox="0 0 38494 34945"
 xmlns:xlink="http://www.w3.org/1999/xlink">
 <g id="Слой_x0020_1">
  <metadata id="CorelCorpID_0Corel-Layer"/>
  <g id="_441410157680">
   <path fill="white" d="M15350 34309l14670 0c1801,0 3275,-1473 3275,-3274l0 -20956 -21220 0 0 20956c0,1801 1474,3274 3275,3274z"/>
   <path fill="#327FB3" fill-rule="nonzero" d="M15350 33674l14670 0c726,0 1386,-297 1865,-775 477,-479 774,-1139 774,-1864l0 -20320 -19948 0 0 20320c0,725 297,1385 775,1863 478,479 1138,776 1864,776zm14670 1271l-14670 0c-1074,0 -2051,-440 -2760,-1148l-2 0c-708,-709 -1148,-1687 -1148,-2762l0 -21591 22490 0 0 21591c0,1075 -440,2053 -1148,2762l-2 0c-709,708 -1686,1148 -2760,1148z"/>
   <path fill="white" d="M15242 635l14886 0c487,0 885,399 885,886l0 4850 -16656 0 0 -4850c0,-487 398,-886 885,-886z"/>
   <path fill="#3BB163" fill-rule="nonzero" d="M15242 0l14886 0c417,0 797,171 1072,446l2 3c275,275 447,655 447,1072l0 2187 -1271 0 0 -2187c0,-69 -28,-132 -73,-177 -45,-45 -108,-73 -177,-73l-14886 0c-68,0 -131,28 -176,74l-2 0c-44,44 -72,106 -72,176l0 2187 -1271 0 0 -2187c0,-417 172,-797 448,-1074 274,-276 654,-447 1073,-447zm16407 4979l0 2028 -17928 0 0 -2028 1271 0 0 757 15386 0 0 -757 1271 0z"/>
   <path fill="white" d="M8396 4344l28577 0c487,0 886,398 886,885l0 4850 -30348 0 0 -4850c0,-487 398,-885 885,-885z"/>
   <path fill="#327FB3" fill-rule="nonzero" d="M8396 3708l28577 0c417,0 797,172 1074,448 276,274 447,654 447,1073l0 5486 -31618 0 0 -5486c0,-417 171,-797 446,-1072l2 -3c276,-275 655,-446 1072,-446zm28577 1271l-28577 0c-69,0 -131,28 -177,73 -44,45 -72,108 -72,177l0 4215 29076 0 0 -4215c0,-68 -28,-131 -74,-176l0 -2c-44,-44 -106,-72 -176,-72z"/>
   <path fill="#327FB3" fill-rule="nonzero" d="M3399 17301c-349,-4 -629,-291 -625,-641 4,-349 291,-629 640,-625l4784 57c349,4 629,291 625,640 -4,350 -291,630 -640,626l-4784 -57z"/>
   <path fill="#327FB3" fill-rule="nonzero" d="M626 21425c-350,-4 -630,-291 -626,-640 4,-350 291,-630 641,-626l6950 92c350,4 630,291 626,640 -4,350 -291,630 -641,626l-6950 -92z"/>
   <path fill="#327FB3" fill-rule="nonzero" d="M4185 25586c-350,-4 -630,-291 -626,-641 4,-349 291,-629 641,-625l4783 57c350,4 630,291 626,640 -4,350 -291,630 -641,626l-4783 -57z"/>
   <path fill="white" d="M18021 34309l2268 0c278,0 506,-228 506,-506l0 -16862 -3280 0 0 16862c0,278 228,506 506,506z"/>
   <path fill="#3BB163" fill-rule="nonzero" d="M18151 33674l2009 0 0 -16098 -2009 0 0 16098zm2138 1271l-2268 0c-312,0 -597,-129 -804,-335l-3 -3c-206,-206 -334,-491 -334,-804l0 -17498 4551 0 0 17498c0,313 -129,598 -335,804l-3 3c-206,206 -491,335 -804,335z"/>
   <path fill="white" d="M25081 34309l2268 0c278,0 506,-228 506,-506l0 -16862 -3280 0 0 16862c0,278 228,506 506,506z"/>
   <path fill="#3BB163" fill-rule="nonzero" d="M25210 33674l2009 0 0 -16098 -2009 0 0 16098zm2139 1271l-2268 0c-312,0 -598,-129 -804,-335l-3 -3c-206,-206 -335,-491 -335,-804l0 -17498 4551 0 0 17498c0,313 -128,598 -334,804l-3 3c-207,206 -491,335 -804,335z"/>
  </g>
 </g>
</svg>
