<?xml version="1.0" encoding="UTF-8"?>
<!DOCTYPE svg PUBLIC "-//W3C//DTD SVG 1.0//EN" "http://www.w3.org/TR/2001/REC-SVG-20010904/DTD/svg10.dtd">
<!-- Creator: CorelDRAW X8 -->
<svg xmlns="http://www.w3.org/2000/svg" xml:space="preserve" width="222px" height="215px" version="1.0" shape-rendering="geometricPrecision" text-rendering="geometricPrecision" image-rendering="optimizeQuality" fill-rule="evenodd" clip-rule="evenodd"
viewBox="0 0 37316 36128"
 xmlns:xlink="http://www.w3.org/1999/xlink">
 <g id="Слой_x0020_1">
  <metadata id="CorelCorpID_0Corel-Layer"/>
  <path fill="white" d="M17686 10665l13352 0 17 1 -13386 0 17 -1zm16057 3904l0 13626 -18762 0 0 -13626 18762 0z"/>
  <rect fill="white" x="12048" y="10666" width="24041" height="3903"/>
  <circle fill="white" cx="11809" cy="31332" r="4052"/>
  <circle fill="#327FB3" cx="11809" cy="31332" r="1042"/>
  <rect fill="white" x="20425" y="17479" width="7874" height="3903"/>
  <g id="_441407533600">
   <path fill="#327FB3" fill-rule="nonzero" d="M15861 32067c-409,0 -741,-332 -741,-741 0,-409 332,-741 741,-741l20714 -42c409,0 741,332 741,741 0,409 -332,741 -741,741l-20714 42z"/>
   <path fill="#327FB3" fill-rule="nonzero" d="M17686 9921l13369 1 0 3 6 0 -6 1484 -13386 0 -6 -1484 6 0 0 -3 17 -1zm16801 4648l0 14370 -20250 0 0 -15114 20250 0 0 744zm-1488 12882l0 -12138 -17274 0 0 12138 17274 0z"/>
   <path fill="#327FB3" fill-rule="nonzero" d="M12048 9922l24785 0 0 5391c-8509,2 -17019,2 -25529,0l0 -5391 744 0zm23297 1487l-22553 0 0 2416 22553 0 0 -2416z"/>
   <path fill="#327FB3" fill-rule="nonzero" d="M12735 27284c0,410 -332,741 -741,741 -409,0 -741,-331 -741,-741l96 -25799 -10608 31c-409,0 -741,-332 -741,-741 0,-409 332,-741 741,-741l11351 -34c409,0 741,332 741,741l-98 26543z"/>
   <path fill="#3BB163" fill-rule="nonzero" d="M11809 26536c1320,0 2519,537 3388,1405l3 3c868,869 1405,2067 1405,3388 0,1321 -537,2519 -1405,3388l-3 3c-869,868 -2068,1405 -3388,1405 -1321,0 -2520,-537 -3389,-1405l-3 -3c-868,-869 -1404,-2067 -1404,-3388 0,-1321 536,-2519 1404,-3388l3 -3c869,-868 2068,-1405 3389,-1405zm2339 2454c-597,-597 -1424,-966 -2339,-966 -916,0 -1743,369 -2340,966l-2 3c-597,596 -967,1424 -967,2339 0,916 370,1743 967,2339l2 3c597,597 1424,966 2340,966 915,0 1742,-369 2339,-966l3 -3c597,-596 966,-1423 966,-2339 0,-915 -369,-1743 -966,-2339l-3 -3z"/>
   <path fill="#3BB163" fill-rule="nonzero" d="M20425 16735l8618 0 0 5391 -9362 0 0 -5391 744 0zm7130 1488l-6386 0 0 2415 6386 0 0 -2415z"/>
   <path fill="#3BB163" fill-rule="nonzero" d="M17394 3715c-854,0 -1038,1242 -172,1468 59,13 114,20 177,20l11969 -38 -3754 2453 814 1245 6819 -4455 -6848 -4408 -805 1251 3768 2426 -11968 38z"/>
   <path fill="#327FB3" fill-rule="nonzero" d="M2764 8090c-409,-5 -737,-341 -732,-750 5,-409 341,-737 750,-732l5868 70c409,5 737,341 733,750 -5,409 -341,737 -750,732l-5869 -70z"/>
   <path fill="#327FB3" fill-rule="nonzero" d="M1161 15344c-409,-7 -735,-344 -729,-753 6,-409 344,-736 753,-729l5899 112c409,6 736,343 730,752 -7,410 -344,736 -753,730l-5900 -112z"/>
   <path fill="#327FB3" fill-rule="nonzero" d="M2764 22458c-409,-5 -737,-340 -732,-750 5,-409 341,-737 750,-732l5868 70c409,5 737,341 733,750 -5,409 -341,737 -750,732l-5869 -70z"/>
  </g>
 </g>
</svg>
