<?xml version="1.0" encoding="UTF-8"?>
<!DOCTYPE svg PUBLIC "-//W3C//DTD SVG 1.0//EN" "http://www.w3.org/TR/2001/REC-SVG-20010904/DTD/svg10.dtd">
<!-- Creator: CorelDRAW X8 -->
<svg xmlns="http://www.w3.org/2000/svg" xml:space="preserve" width="246px" height="255px" version="1.0" shape-rendering="geometricPrecision" text-rendering="geometricPrecision" image-rendering="optimizeQuality" fill-rule="evenodd" clip-rule="evenodd"
viewBox="0 0 58175 60271"
 xmlns:xlink="http://www.w3.org/1999/xlink">
 <g id="Слой_x0020_1">
  <metadata id="CorelCorpID_0Corel-Layer"/>
  <polygon fill="white" points="8037,6131 15269,6131 15269,19500 8037,17956 "/>
  <path fill="white" d="M1046 16462l25651 5479c-1380,3533 -1097,8229 1977,14082l7427 14141 -35055 0 0 -33702z"/>
  <rect fill="white" x="6458" y="30731" width="8035" height="7380"/>
  <path fill="white" d="M20671 30731l5868 0c449,1645 1145,3407 2135,5292l32 62 0 2026 -8035 0 0 -7380z"/>
  <path fill="white" d="M51746 36023l-11516 22003 -11556 -22003c-15324,-29176 38607,-29681 23072,0z"/>
  <circle fill="white" cx="40245" cy="28017" r="5606"/>
  <g id="_441402793600">
   <path fill="#3BB163" fill-rule="nonzero" d="M8037 5085l8278 0 0 15706 -9324 -1991 0 -13715 1046 0zm6186 2092l-5140 0 0 9934 5140 1098 0 -11032z"/>
   <path fill="#3BB163" fill-rule="nonzero" d="M1262 15441l26854 5736 -447 1144c-658,1686 -900,3675 -578,5969 301,2150 1098,4565 2506,7247l8232 15673 -37829 0 0 -36039 1262 270zm24076 7278l-23246 -4966 0 31365 32280 0 -6622 -12609c-1526,-2905 -2392,-5551 -2727,-7933 -305,-2170 -168,-4124 315,-5857z"/>
   <path fill="#3BB163" fill-rule="nonzero" d="M6458 29685l9081 0 0 9472 -10127 0 0 -9472 1046 0zm6989 2092l-5943 0 0 5288 5943 0 0 -5288z"/>
   <path fill="#3BB163" fill-rule="nonzero" d="M20671 29685l6662 0 211 773c215,789 496,1618 846,2487 336,832 737,1696 1207,2592 0,11 142,274 155,299l0 3321 -10127 0 0 -9472 1046 0zm5088 2092l-4042 0 0 5288 5943 0 0 -728c-463,-895 -864,-1768 -1206,-2616 -266,-658 -497,-1307 -695,-1944z"/>
   <path fill="#327FB3" fill-rule="nonzero" d="M52670 36505l-12439 23766 -12481 -23762c-4146,-7894 -3445,-13872 -389,-17860 2907,-3794 7947,-5715 12957,-5739 5015,-24 10037,1852 12902,5651 2994,3970 3629,9959 -550,17944zm-12440 19275l10592 -20239c3736,-7137 3270,-12355 731,-15721 -2447,-3246 -6823,-4848 -11227,-4827 -4409,21 -8813,1670 -11306,4923 -2592,3383 -3119,8583 577,15621l10633 20243z"/>
   <path fill="#327FB3" fill-rule="nonzero" d="M40245 21365c1836,0 3500,745 4703,1949 1204,1203 1949,2867 1949,4703 0,1836 -745,3500 -1949,4703 -1203,1204 -2867,1948 -4703,1948 -1836,0 -3500,-744 -4703,-1948l0 -4c-1204,-1203 -1949,-2865 -1949,-4699 0,-1836 745,-3500 1949,-4703 1203,-1204 2866,-1949 4703,-1949zm3225 3428c-825,-825 -1966,-1336 -3225,-1336 -1259,0 -2400,511 -3224,1336 -825,824 -1336,1965 -1336,3224 0,1261 510,2402 1334,3226 826,823 1967,1333 3226,1333 1259,0 2399,-510 3224,-1335 825,-824 1336,-1965 1336,-3224 0,-1259 -511,-2400 -1335,-3224z"/>
   <path fill="#327FB3" fill-rule="nonzero" d="M56191 2655c251,-519 875,-737 1393,-486 519,250 737,874 487,1393l-4068 8438c-250,518 -874,736 -1393,486 -519,-251 -737,-875 -486,-1394l4067 -8437z"/>
   <path fill="#327FB3" fill-rule="nonzero" d="M39688 1034c5,-575 475,-1038 1050,-1034 575,5 1038,475 1034,1050l-70 8807c-5,575 -475,1038 -1050,1033 -575,-4 -1038,-474 -1034,-1050l70 -8806z"/>
   <path fill="#327FB3" fill-rule="nonzero" d="M21956 3562c-251,-519 -33,-1143 486,-1393 519,-251 1143,-33 1393,486l4068 8437c250,519 32,1143 -487,1394 -518,250 -1142,32 -1393,-486l-4067 -8438z"/>
  </g>
 </g>
</svg>
