<?xml version="1.0" encoding="UTF-8"?>
<!DOCTYPE svg PUBLIC "-//W3C//DTD SVG 1.0//EN" "http://www.w3.org/TR/2001/REC-SVG-20010904/DTD/svg10.dtd">
<!-- Creator: CorelDRAW X8 -->
<svg xmlns="http://www.w3.org/2000/svg" xml:space="preserve" width="206px" height="233px" version="1.0" shape-rendering="geometricPrecision" text-rendering="geometricPrecision" image-rendering="optimizeQuality" fill-rule="evenodd" clip-rule="evenodd"
viewBox="0 0 25425 28796"
 xmlns:xlink="http://www.w3.org/1999/xlink">
 <g id="Слой_x0020_1">
  <metadata id="CorelCorpID_0Corel-Layer"/>
  <polygon fill="white" points="6813,18619 14136,18619 14211,18797 16430,24066 18648,18797 18723,18619 24707,18619 22043,28250 4148,28250 "/>
  <path fill="white" d="M16430 24066l2218 -5269 1102 -2617c2857,-1273 4848,-4136 4848,-7465 0,-4511 -3657,-8168 -8168,-8168 -4512,0 -8169,3657 -8169,8168 0,3329 1992,6192 4848,7465l1102 2617 2219 5269z"/>
  <circle fill="white" cx="16430" cy="8224" r="2709"/>
  <g id="_441402428592">
   <path fill="#327FB3" fill-rule="nonzero" d="M6813 18072l7684 0 1933 4591 1932 -4591 7063 0 -2968 10724 -19026 0 2967 -10724 415 0zm6962 1094l-6548 0 -2362 8537 16763 0 2362 -8537 -4906 0 -2654 6304 -2655 -6304z"/>
   <path fill="#3BB163" fill-rule="nonzero" d="M16430 22663l2902 -6894 196 -87c1354,-603 2500,-1590 3300,-2821 774,-1191 1223,-2615 1223,-4146 0,-2104 -853,-4010 -2232,-5389 -1379,-1379 -3285,-2232 -5389,-2232 -2105,0 -4011,853 -5390,2232 -1379,1379 -2232,3285 -2232,5389 0,1531 450,2954 1223,4145 800,1232 1946,2219 3300,2822l196 87 2903 6894zm2720 -3655l-2720 6462 -3741 -8884c-1461,-695 -2698,-1785 -3572,-3132 -887,-1365 -1403,-2993 -1403,-4739 0,-2406 976,-4585 2553,-6162 1577,-1577 3756,-2553 6163,-2553 2406,0 4585,976 6162,2553 1577,1577 2553,3756 2553,6162 0,1746 -515,3374 -1403,4740 -874,1346 -2111,2436 -3572,3131l-1020 2422z"/>
   <path fill="#327FB3" fill-rule="nonzero" d="M16430 4968c898,0 1713,365 2302,954l0 2c589,589 953,1402 953,2300 0,899 -364,1713 -953,2302 -589,589 -1404,954 -2302,954 -898,0 -1711,-365 -2301,-954l-2 0c-589,-589 -953,-1403 -953,-2302 0,-898 364,-1711 953,-2300l2 -2c590,-589 1403,-954 2301,-954zm1529 1726c-392,-390 -932,-632 -1529,-632 -598,0 -1139,242 -1530,632 -391,391 -632,932 -632,1530 0,597 242,1138 633,1529 390,391 931,633 1529,633 597,0 1137,-242 1528,-633 391,-391 633,-932 633,-1529 0,-598 -241,-1139 -632,-1530z"/>
   <path fill="#327FB3" fill-rule="nonzero" d="M2549 4075c-300,1 -545,-242 -546,-543 -2,-300 241,-545 542,-547l3985 -28c301,-1 546,242 547,543 2,301 -241,546 -542,547l-3986 28z"/>
   <path fill="#327FB3" fill-rule="nonzero" d="M545 9884c-301,0 -545,-244 -545,-545 0,-301 244,-545 545,-545l3995 6c301,0 545,244 545,544 0,301 -244,545 -545,545l-3995 -5z"/>
   <path fill="#327FB3" fill-rule="nonzero" d="M2549 15536c-300,1 -545,-242 -546,-542 -2,-301 241,-546 542,-547l3985 -28c301,-1 546,242 547,542 1,301 -242,546 -542,547l-3986 28z"/>
  </g>
 </g>
</svg>
