<?xml version="1.0" encoding="UTF-8"?>
<!DOCTYPE svg PUBLIC "-//W3C//DTD SVG 1.0//EN" "http://www.w3.org/TR/2001/REC-SVG-20010904/DTD/svg10.dtd">
<!-- Creator: CorelDRAW X8 -->
<svg xmlns="http://www.w3.org/2000/svg" xml:space="preserve" width="233px" height="211px" version="1.0" shape-rendering="geometricPrecision" text-rendering="geometricPrecision" image-rendering="optimizeQuality" fill-rule="evenodd" clip-rule="evenodd"
viewBox="0 0 87971 79427"
 xmlns:xlink="http://www.w3.org/1999/xlink">
 <g id="Слой_x0020_1">
  <metadata id="CorelCorpID_0Corel-Layer"/>
  <g id="_441407541760">
   <rect fill="white" x="13159" y="47769" width="63698" height="6902" rx="5271" ry="260"/>
   <path fill="#327FB3" fill-rule="nonzero" d="M13730 46099l20705 0 0 3339 -19607 0 0 3563 19607 0 0 3339 -20705 0c-612,0 -1171,-252 -1578,-657l-6 0c-405,-405 -657,-966 -657,-1583l0 -5760c0,-613 252,-1171 657,-1578l6 -6c407,-405 966,-657 1578,-657zm41852 0l20705 0c617,0 1178,252 1583,657l0 6c405,407 657,965 657,1578l0 5760c0,617 -252,1178 -657,1583 -405,405 -966,657 -1583,657l-20705 0 0 -3339 19606 0 0 -3563 -19606 0 0 -3339z"/>
   <rect fill="white" x="18965" y="55278" width="52085" height="6902" rx="4310" ry="260"/>
   <path fill="#327FB3" fill-rule="nonzero" d="M19537 53608l13228 0 0 3339 -12130 0 0 3563 12130 0 0 3339 -13228 0c-618,0 -1179,-252 -1584,-657 -406,-406 -657,-966 -657,-1583l0 -5761c0,-617 251,-1177 657,-1583 405,-405 966,-657 1584,-657zm16567 0l17808 0 0 3339 -17808 0 0 -3339zm21147 0l13228 0c618,0 1179,252 1584,657 406,406 657,966 657,1583l0 5761c0,617 -251,1177 -657,1583 -405,405 -966,657 -1584,657l-13228 0 0 -3339 12130 0 0 -3563 -12130 0 0 -3339zm-3339 10241l-17808 0 0 -3339 17808 0 0 3339z"/>
   <rect fill="white" x="34435" y="10879" width="21147" height="66878" rx="10573" ry="15199"/>
   <path fill="#3BB163" fill-rule="nonzero" d="M45009 9209c3364,0 6423,1378 8641,3595l6 6c2218,2218 3595,5278 3595,8642l0 45732c0,3364 -1377,6423 -3595,8641l-6 7c-2218,2217 -5277,3595 -8641,3595 -3368,0 -6431,-1378 -8648,-3595 -2218,-2218 -3596,-5280 -3596,-8648l0 -45732c0,-3368 1378,-6430 3596,-8648 2217,-2217 5280,-3595 8648,-3595zm6290 5952c-1614,-1612 -3841,-2613 -6290,-2613 -2447,0 -4674,1003 -6288,2617 -1614,1614 -2617,3840 -2617,6287l0 45732c0,2447 1003,4673 2617,6287 1614,1614 3841,2617 6288,2617 2449,0 4676,-1002 6290,-2614 1612,-1614 2613,-3841 2613,-6290l0 -45732c0,-2449 -1001,-4677 -2613,-6291z"/>
   <path fill="#327FB3" fill-rule="nonzero" d="M12497 3299c-900,-195 -1472,-1083 -1278,-1983 194,-900 1082,-1472 1983,-1278l13169 2861c901,194 1473,1082 1279,1983 -195,900 -1083,1472 -1983,1278l-13170 -2861z"/>
   <path fill="#327FB3" fill-rule="nonzero" d="M1316 18776c-900,-194 -1472,-1082 -1278,-1982 194,-901 1082,-1473 1982,-1279l20974 4558c900,194 1472,1082 1278,1983 -194,900 -1082,1472 -1982,1278l-20974 -4558z"/>
   <path fill="#327FB3" fill-rule="nonzero" d="M2036 35543c-900,-194 -1472,-1082 -1278,-1982 194,-901 1082,-1473 1982,-1279l13170 2862c900,194 1472,1082 1278,1982 -194,900 -1082,1472 -1982,1278l-13170 -2861z"/>
   <path fill="#327FB3" fill-rule="nonzero" d="M74769 38c900,-194 1789,378 1983,1278 194,900 -378,1788 -1278,1983l-13170 2861c-900,194 -1788,-378 -1983,-1278 -194,-901 378,-1789 1279,-1983l13169 -2861z"/>
   <path fill="#327FB3" fill-rule="nonzero" d="M85951 15515c900,-194 1788,378 1982,1279 194,900 -378,1788 -1278,1982l-20974 4558c-900,194 -1788,-378 -1982,-1278 -194,-901 378,-1789 1278,-1983l20974 -4558z"/>
   <path fill="#327FB3" fill-rule="nonzero" d="M85231 32282c900,-194 1788,378 1982,1279 194,900 -378,1788 -1278,1982l-13170 2861c-900,194 -1788,-378 -1982,-1278 -194,-900 378,-1788 1278,-1982l13170 -2862z"/>
  </g>
 </g>
</svg>
