<?xml version="1.0" encoding="UTF-8"?>
<!DOCTYPE svg PUBLIC "-//W3C//DTD SVG 1.0//EN" "http://www.w3.org/TR/2001/REC-SVG-20010904/DTD/svg10.dtd">
<!-- Creator: CorelDRAW X8 -->
<svg xmlns="http://www.w3.org/2000/svg" xml:space="preserve" width="233px" height="237px" version="1.0" shape-rendering="geometricPrecision" text-rendering="geometricPrecision" image-rendering="optimizeQuality" fill-rule="evenodd" clip-rule="evenodd"
viewBox="0 0 36967 37620"
 xmlns:xlink="http://www.w3.org/1999/xlink">
 <g id="Слой_x0020_1">
  <metadata id="CorelCorpID_0Corel-Layer"/>
  <g id="_442346028240">
   <circle fill="white" cx="23309" cy="16127" r="12955"/>
   <path fill="#3BB163" fill-rule="nonzero" d="M23309 2469c3771,0 7186,1529 9657,4001 2472,2471 4001,5886 4001,9657 0,3771 -1529,7186 -4001,9657 -1877,1878 -4299,3211 -7007,3744 62,-201 103,-424 124,-672 23,-263 -4,-524 -66,-778 2296,-518 4348,-1681 5955,-3288 2217,-2217 3589,-5280 3589,-8663 0,-3383 -1372,-6446 -3589,-8663 -2217,-2217 -5280,-3588 -8663,-3588 -3383,0 -6446,1371 -8663,3588 -2217,2217 -3588,5280 -3588,8663 0,1016 123,2003 356,2946 -180,449 -389,885 -630,1303 -89,155 -187,315 -293,475 -543,-1472 -840,-3063 -840,-4724 0,-3771 1529,-7186 4001,-9657 2471,-2472 5886,-4001 9657,-4001z"/>
   <path fill="#327FB3" d="M24553 30781c260,507 452,1103 355,1665 -181,1054 -640,1639 -1769,1780l-10 1 -761 2c75,278 125,570 123,854 -9,2017 -1583,2431 -3365,2535l-9893 0c-106,0 -210,-26 -303,-79l-1846 -1038c-531,702 -1358,1119 -2245,1119l-2021 0c-1554,0 -2818,-1265 -2818,-2818l0 -11608c0,-1553 1264,-2817 2818,-2817l2021 0c1281,0 2395,870 2721,2095l1479 0c694,-519 1323,-1362 1745,-2096 1066,-1852 1512,-4054 1608,-6166 0,-18 2,-33 6,-48 27,-884 569,-1825 1499,-1977 1647,-269 2618,1932 3028,3140 2,4 3,9 5,14l6 17c679,2262 587,5212 -566,7321l8551 1c1272,-64 2116,976 2236,2159 97,511 -57,1175 -376,1581 -298,379 -724,580 -1199,642 325,540 555,1162 501,1796 -91,1054 -526,1665 -1530,1925z"/>
   <path fill="white" d="M13630 14256c0,2 0,4 0,6 -114,2514 -685,5150 -2089,7277 -466,705 -1247,1643 -1991,2087 -95,58 -205,87 -317,87l-1578 0 0 11689 1741 979 9697 0c531,-31 1503,-122 1923,-502 224,-203 234,-430 236,-712 1,-305 -80,-642 -185,-935l-2091 0c-342,0 -620,-278 -620,-620 0,-342 278,-620 620,-620l4076 0c492,-66 548,-242 624,-686 76,-443 -257,-1064 -517,-1444l-4183 4c-342,1 -620,-277 -620,-619 0,-343 278,-620 620,-620l5137 0c596,-104 685,-278 732,-833 50,-588 -391,-1281 -782,-1717l-5831 0c-342,0 -620,-278 -620,-620 0,-342 278,-620 620,-620l7166 0c151,-12 309,-59 407,-183 159,-203 124,-430 125,-652 -37,-362 -160,-745 -481,-953 -117,-75 -334,-154 -476,-131l-14 2 -9749 0c-239,0 -457,-138 -560,-354 -102,-215 -71,-471 79,-656 1529,-1879 1679,-4920 1026,-7176 -158,-465 -927,-2445 -1655,-2323 -320,53 -468,548 -468,823 0,8 -1,15 -2,22z"/>
   <path fill="white" d="M4839 36379c870,0 1578,-708 1578,-1578l0 -11608c0,-869 -709,-1577 -1578,-1577l-2021 0c-870,0 -1579,708 -1579,1578l0 11607c0,870 709,1578 1579,1578l2021 0z"/>
   <path fill="#3BB163" fill-rule="nonzero" d="M19036 17323c-188,-338 -66,-765 272,-953 338,-188 765,-66 953,272l1254 2248 4891 -6578c231,-311 670,-376 981,-146 311,231 376,670 146,981l-5539 7448c-57,78 -132,145 -222,195 -338,188 -765,66 -953,-272l-1783 -3195z"/>
   <path fill="#327FB3" fill-rule="nonzero" d="M6088 1350c-358,-148 -527,-559 -379,-917 149,-358 560,-528 918,-379l5124 2125c357,148 527,559 378,917 -148,358 -559,528 -917,379l-5124 -2125z"/>
   <path fill="#327FB3" fill-rule="nonzero" d="M2131 7149c-356,-150 -523,-561 -373,-918 150,-356 561,-523 917,-373l5137 2172c356,150 523,561 373,918 -150,356 -561,523 -917,373l-5137 -2172z"/>
   <path fill="#327FB3" fill-rule="nonzero" d="M1037 13955c-358,-148 -528,-559 -379,-917 148,-358 559,-528 917,-379l5124 2125c358,149 527,559 379,917 -149,358 -560,528 -918,379l-5123 -2125z"/>
  </g>
 </g>
</svg>
