<?xml version="1.0" encoding="UTF-8"?>
<!DOCTYPE svg PUBLIC "-//W3C//DTD SVG 1.0//EN" "http://www.w3.org/TR/2001/REC-SVG-20010904/DTD/svg10.dtd">
<!-- Creator: CorelDRAW X8 -->
<svg xmlns="http://www.w3.org/2000/svg" xml:space="preserve" width="245px" height="231px" version="1.0" shape-rendering="geometricPrecision" text-rendering="geometricPrecision" image-rendering="optimizeQuality" fill-rule="evenodd" clip-rule="evenodd"
viewBox="0 0 43230 40774"
 xmlns:xlink="http://www.w3.org/1999/xlink">
 <g id="Слой_x0020_1">
  <metadata id="CorelCorpID_0Corel-Layer"/>
  <path fill="white" d="M23657 10747l0 -1712c0,-1942 -1589,-3530 -3530,-3530l-19345 0 0 5242 22875 0z"/>
  <path fill="white" d="M34302 35479l0 -5097 -10529 0 0 -10025 10529 0 0 -5097c0,-2482 -2030,-4513 -4513,-4513l-29007 0 0 29245 29007 0c2483,0 4513,-2031 4513,-4513z"/>
  <path fill="white" d="M36649 28835l0 -6931c0,-851 -696,-1547 -1547,-1547l-11329 0 0 10025 11329 0c851,0 1547,-697 1547,-1547z"/>
  <circle fill="#327FB3" cx="30211" cy="25369" r="1095"/>
  <g id="_442346028880">
   <path fill="#327FB3" fill-rule="nonzero" d="M22875 9965l0 -930c0,-755 -309,-1442 -808,-1941 -496,-499 -1184,-807 -1940,-807l-18563 0 0 3678 21311 0zm1564 -930l0 2494 -24439 0 0 -6807 20127 0c1185,0 2262,486 3043,1267l3 0c781,781 1266,1859 1266,3046z"/>
   <path fill="#327FB3" fill-rule="nonzero" d="M33520 35479l0 -4315 -10529 0 0 -11589 10529 0 0 -4315c0,-1025 -420,-1958 -1096,-2635 -675,-677 -1609,-1096 -2635,-1096l-28225 0 0 27681 28225 0c1026,0 1960,-420 2636,-1095 675,-678 1095,-1611 1095,-2636zm1564 -5097l0 5097c0,1457 -595,2781 -1554,3740l-3 0c-960,959 -2283,1555 -3738,1555l-29789 0 0 -30809 29789 0c1455,0 2778,596 3738,1555l3 0c959,959 1554,2283 1554,3740l0 5879 -10529 0 0 8461 10529 0 0 782z"/>
   <path fill="#3BB163" fill-rule="nonzero" d="M35867 28835l0 -6931c0,-209 -86,-401 -225,-540 -139,-138 -330,-225 -540,-225l-10547 0 0 8461 10547 0c211,0 403,-86 540,-223l3 -3c137,-137 222,-328 222,-539zm1564 -6931l0 6931c0,637 -262,1219 -684,1642l-2 3c-423,422 -1005,684 -1643,684l-12111 0 0 -11589 12111 0c641,0 1224,262 1645,684 422,422 684,1004 684,1645z"/>
   <path fill="#3BB163" fill-rule="nonzero" d="M12269 20015c362,-512 751,-935 1201,-1270 780,-580 1698,-871 2901,-871 1336,0 2550,508 3433,1329 897,835 1453,1991 1453,3270 0,2113 -1096,4176 -2739,6213 -1576,1954 -3648,3881 -5720,5808l-532 494 -531 -494c-2071,-1927 -4144,-3854 -5719,-5808 -1643,-2037 -2739,-4100 -2739,-6213 0,-1279 555,-2435 1452,-3270 883,-821 2098,-1329 3434,-1329 1960,0 3115,714 4106,2141zm2130 -17c-535,398 -983,1032 -1445,1890l-688 1279 -687 -1279c-878,-1633 -1737,-2450 -3416,-2450 -930,0 -1768,347 -2370,908 -588,546 -952,1299 -952,2127 0,1703 956,3457 2391,5236 1370,1700 3184,3423 5035,5148 1851,-1725 3664,-3448 5035,-5148 1434,-1779 2391,-3533 2391,-5236 0,-828 -364,-1581 -952,-2127 -603,-561 -1441,-908 -2370,-908 -849,0 -1471,187 -1972,560z"/>
   <path fill="#327FB3" fill-rule="nonzero" d="M30840 60c398,-165 855,23 1020,422 166,398 -23,855 -421,1020l-5699 2363c-398,166 -855,-23 -1021,-421 -165,-398 24,-855 422,-1021l5699 -2363z"/>
   <path fill="#327FB3" fill-rule="nonzero" d="M36051 4797c396,-167 854,19 1020,416 167,396 -19,853 -415,1020l-5713 2416c-396,167 -854,-19 -1020,-415 -167,-396 19,-854 415,-1020l5713 -2417z"/>
   <path fill="#327FB3" fill-rule="nonzero" d="M42150 12270c398,-165 855,23 1020,422 165,398 -23,855 -421,1020l-5699 2363c-398,166 -855,-23 -1021,-421 -165,-398 24,-855 422,-1021l5699 -2363z"/>
  </g>
 </g>
</svg>
