<?xml version="1.0" encoding="UTF-8"?>
<!DOCTYPE svg PUBLIC "-//W3C//DTD SVG 1.0//EN" "http://www.w3.org/TR/2001/REC-SVG-20010904/DTD/svg10.dtd">
<!-- Creator: CorelDRAW X8 -->
<svg xmlns="http://www.w3.org/2000/svg" xml:space="preserve" width="203px" height="204px" version="1.0" shape-rendering="geometricPrecision" text-rendering="geometricPrecision" image-rendering="optimizeQuality" fill-rule="evenodd" clip-rule="evenodd"
viewBox="0 0 26649 26808"
 xmlns:xlink="http://www.w3.org/1999/xlink">
 <g id="Слой_x0020_1">
  <metadata id="CorelCorpID_0Corel-Layer"/>
  <polygon fill="white" points="23516,11420 23516,26225 3132,26225 3132,11420 "/>
  <path fill="white" d="M16867 583l5681 0 0 3271c0,1800 -1472,3272 -3272,3272l-5681 0 0 -3272c0,-1799 1472,-3271 3272,-3271z"/>
  <path fill="white" d="M10323 583l-5681 0 0 3271c0,1800 1473,3272 3272,3272l5681 0 0 -3272c0,-1799 -1472,-3271 -3272,-3271z"/>
  <rect fill="white" x="11389" y="11451" width="3871" height="14774"/>
  <rect fill="white" x="583" y="7179" width="25484" height="4241"/>
  <g id="_442346030800">
   <path fill="#327FB3" fill-rule="nonzero" d="M24099 11420l0 15388 -21550 0 0 -15970 21550 0 0 582zm-1165 14223l0 -13640 -19220 0 0 13640 19220 0z"/>
   <path fill="#3BB163" fill-rule="nonzero" d="M16867 0l6263 0 0 3854c0,1061 -433,2024 -1131,2723 -699,698 -1663,1131 -2723,1131l-6263 0 0 -3854c0,-1058 433,-2022 1132,-2721 698,-700 1661,-1133 2722,-1133zm5098 1165l-5098 0c-739,0 -1411,303 -1899,790l-2 0c-486,486 -788,1159 -788,1899l0 2689 5098 0c739,0 1411,-302 1899,-790 488,-488 790,-1160 790,-1899l0 -2689z"/>
   <path fill="#3BB163" fill-rule="nonzero" d="M10323 1165l-5098 0 0 2689c0,739 303,1411 790,1899 488,488 1160,790 1899,790l5099 0 0 -2689c0,-740 -302,-1413 -789,-1899l-2 0c-487,-487 -1160,-790 -1899,-790zm-5681 -1165l5681 0c1061,0 2025,433 2723,1132 698,700 1132,1664 1132,2722l0 3854 -6264 0c-1060,0 -2024,-433 -2722,-1131 -699,-699 -1132,-1662 -1132,-2723l0 -3854 582 0z"/>
   <path fill="#3BB163" fill-rule="nonzero" d="M11389 10869l4453 0 0 15939 -5036 0 0 -15939 583 0zm3288 1165l-2705 0 0 13609 2705 0 0 -13609z"/>
   <path fill="#327FB3" fill-rule="nonzero" d="M583 6597l26066 0 0 5406 -26649 0 0 -5406 583 0zm24901 1165l-24319 0 0 3076 24319 0 0 -3076z"/>
  </g>
 </g>
</svg>
