<svg height="512pt" viewBox="0 0 512 512" width="512pt" xmlns="http://www.w3.org/2000/svg"><path d="m307 412c8.285156 0 15-6.714844 15-15v-53.785156l104.394531 104.390625c2.925781 2.929687 6.765625 4.394531 10.605469 4.394531s7.679688-1.464844 10.605469-4.394531c5.859375-5.855469 5.859375-15.355469 0-21.210938l-104.390625-104.394531h53.785156c8.285156 0 15-6.714844 15-15s-6.714844-15-15-15h-90c-.058594 0-.117188.007812-.179688.007812-.429687.007813-.863281.023438-1.296874.066407-.242188.023437-.476563.070312-.71875.105469-.242188.035156-.488282.0625-.730469.109374-.265625.054688-.523438.125-.78125.191407-.214844.054687-.429688.101562-.644531.164062-.25.078125-.496094.171875-.742188.261719-.214844.078125-.429688.148438-.644531.234375-.230469.097656-.449219.207031-.671875.3125s-.441406.203125-.65625.316406c-.214844.117188-.417969.246094-.628906.371094-.210938.128906-.425782.246094-.632813.386719-.230469.152344-.449219.324218-.667969.492187-.171875.125-.34375.242188-.511718.378907-.765626.628906-1.46875 1.332031-2.09375 2.097656-.140626.167968-.261719.347656-.390626.519531-.164062.21875-.332031.429687-.484374.65625-.140626.210937-.261719.429687-.390626.644531-.121093.207032-.25.40625-.363281.613282-.117187.222656-.21875.449218-.324219.675781-.101562.21875-.210937.433593-.304687.65625-.089844.21875-.164063.441406-.242187.664062-.085938.238281-.179688.476563-.253907.722657-.066406.21875-.113281.445312-.171875.671874-.0625.25-.132812.496094-.183594.75-.050781.257813-.082031.515626-.117187.777344-.035156.222656-.074219.445313-.097656.675782-.046875.476562-.070313.953124-.074219 1.433593v.042969 90c0 8.285156 6.714844 15 15 15zm0 0"/><path d="m45 286h20c8.285156 0 15-6.714844 15-15s-6.714844-15-15-15h-20c-8.269531 0-15-6.730469-15-15v-20c0-8.285156-6.714844-15-15-15s-15 6.714844-15 15v20c0 24.8125 20.1875 45 45 45zm0 0"/><path d="m15 80c8.285156 0 15-6.714844 15-15v-20c0-8.269531 6.730469-15 15-15h20c8.285156 0 15-6.714844 15-15s-6.714844-15-15-15h-20c-24.8125 0-45 20.1875-45 45v20c0 8.285156 6.714844 15 15 15zm0 0"/><path d="m128 286h30c8.285156 0 15-6.714844 15-15s-6.714844-15-15-15h-30c-8.285156 0-15 6.714844-15 15s6.714844 15 15 15zm0 0"/><path d="m15 173c8.285156 0 15-6.714844 15-15v-30c0-8.285156-6.714844-15-15-15s-15 6.714844-15 15v30c0 8.285156 6.714844 15 15 15zm0 0"/><path d="m221 30h20c8.269531 0 15 6.730469 15 15v20c0 8.285156 6.714844 15 15 15s15-6.714844 15-15v-20c0-24.8125-20.1875-45-45-45h-20c-8.285156 0-15 6.714844-15 15s6.714844 15 15 15zm0 0"/><path d="m128 30h30c8.285156 0 15-6.714844 15-15s-6.714844-15-15-15h-30c-8.285156 0-15 6.714844-15 15s6.714844 15 15 15zm0 0"/><path d="m271 113c-8.285156 0-15 6.714844-15 15v30c0 8.285156 6.714844 15 15 15s15-6.714844 15-15v-30c0-8.285156-6.714844-15-15-15zm0 0"/><path d="m221 286h20c24.8125 0 45-20.1875 45-45v-20c0-8.285156-6.714844-15-15-15s-15 6.714844-15 15v20c0 8.269531-6.730469 15-15 15h-20c-8.285156 0-15 6.714844-15 15s6.714844 15 15 15zm0 0"/><path d="m467 0h-139c-8.285156 0-15 6.714844-15 15s6.714844 15 15 15h139c8.269531 0 15 6.730469 15 15v422c0 8.269531-6.730469 15-15 15h-422c-8.269531 0-15-6.730469-15-15v-137c0-8.285156-6.714844-15-15-15s-15 6.714844-15 15v137c0 24.8125 20.1875 45 45 45h422c24.8125 0 45-20.1875 45-45v-422c0-24.8125-20.1875-45-45-45zm0 0"/></svg>