<?xml version="1.0" encoding="UTF-8"?>
<!DOCTYPE svg PUBLIC "-//W3C//DTD SVG 1.0//EN" "http://www.w3.org/TR/2001/REC-SVG-20010904/DTD/svg10.dtd">
<!-- Creator: CorelDRAW X8 -->
<svg xmlns="http://www.w3.org/2000/svg" xml:space="preserve" width="210px" height="225px" version="1.0" shape-rendering="geometricPrecision" text-rendering="geometricPrecision" image-rendering="optimizeQuality" fill-rule="evenodd" clip-rule="evenodd"
viewBox="0 0 79437 84893"
 xmlns:xlink="http://www.w3.org/1999/xlink">
 <g id="Слой_x0020_1">
  <metadata id="CorelCorpID_0Corel-Layer"/>
  <g id="_442346082864">
   <polygon fill="white" points="13678,61664 31786,61664 38968,55171 46593,61664 65678,61664 65760,61668 65760,73032 65678,73035 13678,73035 "/>
   <path fill="white" d="M43050 21965l0 35513c0,381 -311,692 -691,692l-6977 0c-381,0 -692,-311 -692,-692l0 -35513 8360 0z"/>
   <rect fill="white" x="1673" y="45254" width="12005" height="37966" rx="6002" ry="8629"/>
   <rect fill="white" x="65759" y="45254" width="12005" height="37966" rx="6002" ry="8629"/>
   <path fill="white" d="M7521 8360l22251 0 0 6918 -22251 0c-315,0 -572,-257 -572,-573l0 -5773c0,-315 257,-572 572,-572zm40448 0l22251 0c315,0 572,257 572,572l0 5773c0,316 -257,573 -572,573l-22251 0 0 -6918z"/>
   <rect fill="white" x="29772" y="1673" width="18196" height="20291" rx="1506" ry="763"/>
   <g>
    <path fill="#327FB3" fill-rule="nonzero" d="M13678 59991l17474 0 7782 -7036 8262 7036 18482 0c568,53 1181,55 1755,80l0 14557c-574,25 -1187,27 -1755,81l-53673 -1 0 -14717 1673 0zm18108 3347l-16435 0 0 8024 48735 0 0 -8024 -18096 0 -6988 -5952 -6583 5952 -633 0z"/>
    <path fill="#327FB3" fill-rule="nonzero" d="M36044 68509c-924,0 -1673,-749 -1673,-1673 0,-924 749,-1673 1673,-1673l5653 0c924,0 1673,749 1673,1673 0,924 -749,1673 -1673,1673l-5653 0z"/>
    <path fill="#327FB3" fill-rule="nonzero" d="M44724 21965l0 35513c0,648 -266,1236 -694,1666l0 6c-428,428 -1020,693 -1671,693l-6977 0c-651,0 -1244,-265 -1672,-693l0 -6c-428,-430 -693,-1018 -693,-1666l0 -37187 11707 0 0 1674zm-3347 34532l0 -32859 -5014 0 0 32859 5014 0z"/>
    <path fill="#3BB163" fill-rule="nonzero" d="M7675 43581c2113,0 4033,863 5423,2253 1390,1390 2253,3310 2253,5422l0 25962c0,2106 -865,4026 -2256,5418 -1387,1394 -3307,2257 -5419,2257 -2113,0 -4033,-863 -5423,-2253 -1388,-1396 -2253,-3316 -2253,-5422l0 -25962c0,-2112 863,-4032 2253,-5422 1390,-1390 3310,-2253 5422,-2253zm1 3346c-1189,0 -2272,488 -3057,1273 -785,785 -1272,1867 -1272,3056l0 25962c0,1193 485,2275 1266,3056l6 0c785,785 1868,1272 3056,1272 1190,0 2272,-487 3057,-1272l6 0c781,-781 1267,-1863 1267,-3056l0 -25962c0,-1189 -488,-2271 -1273,-3056 -785,-785 -1867,-1273 -3056,-1273z"/>
    <path fill="#3BB163" fill-rule="nonzero" d="M71762 43581c2112,0 4032,863 5422,2253 1390,1390 2253,3310 2253,5422l0 25962c0,2112 -863,4032 -2253,5422l-7 0c-1390,1390 -3307,2253 -5415,2253 -2112,0 -4032,-863 -5422,-2253 -1389,-1396 -2254,-3316 -2254,-5422l0 -25962c0,-2112 864,-4032 2254,-5422 1390,-1390 3310,-2253 5422,-2253zm3056 4619c-785,-785 -1867,-1273 -3056,-1273 -1189,0 -2272,488 -3056,1273 -785,785 -1273,1867 -1273,3056l0 25962c0,1193 485,2275 1266,3056l7 0c784,785 1867,1272 3056,1272 1191,0 2275,-486 3059,-1269 782,-788 1269,-1870 1269,-3059l0 -25962c0,-1189 -487,-2271 -1272,-3056z"/>
    <path fill="#327FB3" fill-rule="nonzero" d="M7521 6687l23925 0 0 10264 -23925 0c-614,0 -1173,-252 -1581,-658l-6 0c-406,-406 -658,-969 -658,-1588l0 -5773c0,-613 252,-1173 658,-1581l6 -6c408,-406 967,-658 1581,-658zm20578 3347l-19477 0 0 3570 19477 0 0 -3570zm19870 -3347l22251 0c618,0 1181,252 1587,658l0 6c406,408 658,968 658,1581l0 5773c0,619 -252,1182 -658,1588 -406,406 -969,658 -1587,658l-23925 0 0 -10264 1674 0zm21149 3347l-19476 0 0 3570 19476 0 0 -3570z"/>
    <path fill="#327FB3" fill-rule="nonzero" d="M31278 0l15185 0c876,0 1672,358 2246,933 576,575 933,1370 933,2246l0 17280c0,867 -357,1663 -933,2240l-6 6c-577,576 -1372,933 -2240,933l-15185 0c-876,0 -1671,-357 -2246,-933 -575,-574 -933,-1371 -933,-2246l0 -17280c0,-871 358,-1665 933,-2240l6 -6c576,-575 1369,-933 2240,-933zm15017 3347l-14849 0 0 16944 14849 0 0 -16944z"/>
    <path fill="#327FB3" fill-rule="nonzero" d="M68767 30558c902,-194 1792,379 1987,1281 194,903 -379,1793 -1281,1987l-13200 2868c-902,195 -1792,-379 -1987,-1281 -194,-902 379,-1792 1281,-1987l13200 -2868z"/>
    <path fill="#327FB3" fill-rule="nonzero" d="M8527 33826c-903,-194 -1476,-1084 -1281,-1987 194,-902 1084,-1475 1987,-1281l13199 2868c902,195 1476,1085 1281,1987 -194,902 -1085,1476 -1987,1281l-13199 -2868z"/>
   </g>
  </g>
 </g>
</svg>
