<?xml version="1.0" encoding="UTF-8"?>
<!DOCTYPE svg PUBLIC "-//W3C//DTD SVG 1.0//EN" "http://www.w3.org/TR/2001/REC-SVG-20010904/DTD/svg10.dtd">
<!-- Creator: CorelDRAW X8 -->
<svg xmlns="http://www.w3.org/2000/svg" xml:space="preserve" width="244px" height="230px" version="1.0" shape-rendering="geometricPrecision" text-rendering="geometricPrecision" image-rendering="optimizeQuality" fill-rule="evenodd" clip-rule="evenodd"
viewBox="0 0 122194 115142"
 xmlns:xlink="http://www.w3.org/1999/xlink">
 <g id="Слой_x0020_1">
  <metadata id="CorelCorpID_0Corel-Layer"/>
  <g id="_442346084400">
   <path fill="white" d="M53917 90120c366,1444 561,2954 561,4511 0,10101 -8188,18289 -18289,18289 -10101,0 -18289,-8188 -18289,-18289 0,-1719 238,-3384 681,-4961l18456 7538 16880 -7088z"/>
   <path fill="white" d="M2222 76537l0 -2c0,-5998 4907,-10904 10904,-10904l47169 0c5998,0 10905,4906 10905,10904l0 2c0,5998 -5376,8583 -10905,10905l-23258 9766 -23911 -9766c-5551,-2268 -10904,-4907 -10904,-10905z"/>
   <circle fill="#327FB3" cx="36711" cy="86270" r="4703"/>
   <path fill="white" d="M102689 44789c366,1444 561,2954 561,4511 0,10101 -8188,18289 -18288,18289 -10101,0 -18289,-8188 -18289,-18289 0,-1719 237,-3384 681,-4961l18455 7538 16880 -7088z"/>
   <path fill="white" d="M50994 31206l0 -2c0,-5998 4907,-10904 10905,-10904l47169 0c5998,0 10905,4906 10905,10904l0 2c0,5998 -5377,8583 -10905,10905l-23259 9766 -23910 -9766c-5551,-2268 -10905,-4907 -10905,-10905z"/>
   <circle fill="#327FB3" cx="85484" cy="40939" r="4703"/>
   <g>
    <path fill="#3BB163" fill-rule="nonzero" d="M56069 89582c209,823 368,1660 473,2503 103,837 158,1687 158,2546 0,5663 -2297,10791 -6008,14503 -3712,3711 -8840,6008 -14503,6008 -5663,0 -10792,-2297 -14503,-6008 -3711,-3712 -6008,-8840 -6008,-14503 0,-923 68,-1860 198,-2805 129,-953 323,-1873 570,-2755l671 -2388 19895 8127 18420 -7736 637 2508zm-3813 5049c0,-466 -20,-927 -58,-1380l-15137 6356 -16834 -6876c-69,602 -105,1237 -105,1900 0,4437 1799,8455 4705,11361 2907,2907 6925,4706 11362,4706 4437,0 8455,-1799 11361,-4706 2907,-2906 4706,-6924 4706,-11361z"/>
    <path fill="#327FB3" fill-rule="nonzero" d="M0 76537c0,-3613 1476,-6896 3854,-9274 2378,-2378 5661,-3854 9272,-3854l47169 0c3611,0 6895,1476 9273,3854 2377,2378 3854,5661 3854,9272 0,3776 -1666,6455 -4186,8543 -2268,1880 -5161,3186 -8082,4412l-24093 10117 -24768 -10117c-2947,-1204 -5856,-2518 -8115,-4400 -2518,-2098 -4178,-4791 -4178,-8553zm4444 -2c0,2238 1018,3865 2563,5153 1804,1501 4349,2642 6953,3706l23052 9416 22424 -9416c2608,-1095 5170,-2244 6970,-3736 1549,-1283 2572,-2897 2572,-5121 0,-2388 -977,-4559 -2552,-6133 -1574,-1574 -3745,-2552 -6131,-2552l-47169 0c-2385,0 -4556,978 -6131,2552 -1574,1574 -2551,3745 -2551,6131z"/>
    <path fill="#327FB3" fill-rule="nonzero" d="M25037 4390c-1198,-259 -1959,-1441 -1701,-2639 258,-1198 1440,-1959 2638,-1701l17527 3808c1198,259 1959,1441 1701,2639 -259,1198 -1441,1959 -2639,1701l-17526 -3808z"/>
    <path fill="#327FB3" fill-rule="nonzero" d="M10157 24987c-1198,-258 -1959,-1440 -1701,-2638 258,-1198 1440,-1959 2638,-1701l27912 6065c1198,259 1960,1441 1701,2639 -258,1198 -1440,1959 -2638,1701l-27912 -6066z"/>
    <path fill="#327FB3" fill-rule="nonzero" d="M11115 47301c-1198,-258 -1959,-1440 -1701,-2638 258,-1198 1440,-1960 2638,-1701l17527 3807c1198,259 1959,1441 1701,2639 -259,1198 -1441,1959 -2639,1701l-17526 -3808z"/>
    <path fill="#327FB3" fill-rule="nonzero" d="M15109 76566c-1227,0 -2222,-995 -2222,-2222 0,-1227 995,-2222 2222,-2222l43204 0c1227,0 2222,995 2222,2222 0,1227 -995,2222 -2222,2222l-43204 0z"/>
    <path fill="#3BB163" fill-rule="nonzero" d="M104842 44251c208,823 368,1660 473,2503 103,837 157,1687 157,2546 0,5663 -2296,10791 -6008,14503 -3711,3711 -8839,6008 -14502,6008 -5663,0 -10792,-2297 -14503,-6008 -3712,-3712 -6008,-8840 -6008,-14503 0,-923 68,-1860 197,-2805 130,-953 323,-1873 571,-2755l671 -2388 19895 8127 18420 -7736 637 2508zm-3813 5049c0,-466 -21,-927 -59,-1380l-15136 6356 -16834 -6876c-69,602 -105,1237 -105,1900 0,4437 1798,8455 4705,11361 2907,2907 6924,4706 11362,4706 4437,0 8454,-1799 11361,-4706 2907,-2906 4706,-6924 4706,-11361z"/>
    <path fill="#327FB3" fill-rule="nonzero" d="M48773 31206c0,-3613 1476,-6896 3854,-9274 2377,-2378 5661,-3854 9272,-3854l47169 0c3611,0 6895,1476 9272,3854 2378,2378 3854,5661 3854,9272 0,3776 -1665,6455 -4185,8543 -2268,1880 -5162,3186 -8082,4412l-24093 10117 -24768 -10117c-2947,-1204 -5856,-2518 -8116,-4400 -2518,-2098 -4177,-4791 -4177,-8553zm4443 -2c0,2238 1019,3865 2564,5153 1804,1502 4348,2642 6952,3706l23053 9416 22424 -9416c2607,-1095 5169,-2244 6970,-3736 1549,-1283 2572,-2897 2572,-5121 0,-2388 -978,-4558 -2552,-6133 -1574,-1574 -3745,-2552 -6131,-2552l-47169 0c-2386,0 -4557,978 -6131,2552 -1574,1575 -2552,3745 -2552,6131z"/>
    <path fill="#327FB3" fill-rule="nonzero" d="M63882 31235c-1227,0 -2222,-995 -2222,-2222 0,-1227 995,-2221 2222,-2221l43204 0c1227,0 2222,994 2222,2221 0,1227 -995,2222 -2222,2222l-43204 0z"/>
   </g>
  </g>
 </g>
</svg>
