<?xml version="1.0" encoding="UTF-8"?>
<!DOCTYPE svg PUBLIC "-//W3C//DTD SVG 1.0//EN" "http://www.w3.org/TR/2001/REC-SVG-20010904/DTD/svg10.dtd">
<!-- Creator: CorelDRAW X8 -->
<svg xmlns="http://www.w3.org/2000/svg" xml:space="preserve" width="227px" height="238px" version="1.0" shape-rendering="geometricPrecision" text-rendering="geometricPrecision" image-rendering="optimizeQuality" fill-rule="evenodd" clip-rule="evenodd"
viewBox="0 0 46070 48294"
 xmlns:xlink="http://www.w3.org/1999/xlink">
 <g id="Слой_x0020_1">
  <metadata id="CorelCorpID_0Corel-Layer"/>
  <path fill="white" d="M44330 42484l-12222 -12223c-1119,-1119 -2951,-1119 -4071,0l0 0c-1119,1120 -1119,2952 0,4071l12223 12222c1119,1119 2951,1119 4070,0l0 0c1119,-1119 1119,-2951 0,-4070z"/>
  <circle fill="white" cx="15180" cy="15181" r="14280"/>
  <g id="_442346034256">
   <path fill="#327FB3" fill-rule="nonzero" d="M43694 43120l-12223 -12222c-383,-384 -891,-576 -1398,-576 -509,0 -1017,192 -1401,574l1 2c-384,382 -575,890 -575,1399 0,508 191,1016 573,1399l12225 12222c382,384 890,575 1399,575 508,0 1015,-192 1399,-576 383,-383 575,-890 575,-1398 0,-508 -192,-1016 -575,-1399zm-10950 -13495l12223 12222c735,735 1103,1704 1103,2672 0,967 -368,1936 -1103,2671 -736,736 -1705,1104 -2672,1104 -966,0 -1933,-368 -2668,-1103 -57,0 -12190,-11934 -12227,-12227 -735,-735 -1103,-1702 -1103,-2667 0,-965 368,-1933 1103,-2668l4 -4c736,-735 1703,-1104 2669,-1104 967,0 1936,368 2671,1104z"/>
   <path fill="#327FB3" fill-rule="nonzero" d="M28632 29590c371,328 405,895 77,1266 -328,371 -895,405 -1266,77l-3869 -3435c-371,-329 -405,-896 -77,-1267 328,-371 895,-405 1266,-77l3869 3436z"/>
   <path fill="#3BB163" fill-rule="nonzero" d="M15180 0c4192,0 7987,1699 10735,4447 2747,2747 4446,6542 4446,10734 0,4191 -1699,7987 -4446,10734 -2748,2747 -6543,4446 -10735,4446 -4191,0 -7987,-1699 -10734,-4446 -2747,-2747 -4446,-6543 -4446,-10734 0,-4192 1699,-7987 4446,-10735 2747,-2747 6543,-4446 10734,-4446zm9462 5720c-2421,-2422 -5767,-3919 -9462,-3919 -3694,0 -7040,1497 -9461,3918 -2421,2422 -3918,5767 -3918,9462 0,3694 1497,7040 3918,9461 2421,2421 5767,3918 9461,3918 3695,0 7041,-1497 9462,-3918 2421,-2421 3918,-5767 3918,-9461 0,-3695 -1497,-7040 -3918,-9461z"/>
   <path fill="#327FB3" fill-rule="nonzero" d="M41947 4874c495,-6 901,391 907,886 6,495 -391,902 -886,907l-7102 85c-496,6 -902,-391 -908,-886 -6,-495 391,-902 886,-908l7103 -84z"/>
   <path fill="#327FB3" fill-rule="nonzero" d="M44051 13653c495,-6 901,391 907,886 6,495 -391,901 -886,907l-11311 136c-495,6 -902,-391 -907,-886 -6,-495 391,-902 886,-908l11311 -135z"/>
   <path fill="#327FB3" fill-rule="nonzero" d="M41947 22263c495,-6 901,391 907,886 6,495 -391,902 -886,908l-7102 84c-496,6 -902,-391 -908,-886 -6,-495 391,-901 886,-907l7103 -85z"/>
   <path fill="#3BB163" fill-rule="nonzero" d="M17439 3924c275,-411 833,-522 1244,-246 412,276 522,833 247,1245l-6163 9157 5446 -36c495,-2 898,398 900,893 1,212 -72,408 -195,562l-8070 10170c-308,389 -874,453 -1262,144 -389,-308 -453,-874 -145,-1262l6907 -8701 -5239 34c-183,8 -370,-41 -534,-151 -411,-275 -521,-833 -246,-1245l7110 -10564z"/>
  </g>
 </g>
</svg>
