<?xml version="1.0" encoding="UTF-8"?>
<!DOCTYPE svg PUBLIC "-//W3C//DTD SVG 1.0//EN" "http://www.w3.org/TR/2001/REC-SVG-20010904/DTD/svg10.dtd">
<!-- Creator: CorelDRAW X8 -->
<svg xmlns="http://www.w3.org/2000/svg" xml:space="preserve" width="230px" height="190px" version="1.0" shape-rendering="geometricPrecision" text-rendering="geometricPrecision" image-rendering="optimizeQuality" fill-rule="evenodd" clip-rule="evenodd"
viewBox="0 0 124720 103157"
 xmlns:xlink="http://www.w3.org/1999/xlink">
 <g id="Слой_x0020_1">
  <metadata id="CorelCorpID_0Corel-Layer"/>
  <g id="_442346079216">
   <path fill="white" d="M25591 53148l35606 9595 37321 -9595c1698,-437 3345,-329 4881,197l0 31474c-1534,535 -3180,668 -4881,285l-37009 -8342 -35918 8342c-1477,342 -2913,290 -4270,-78l0 -31897c1359,-356 2796,-378 4270,19z"/>
   <path fill="#327FB3" fill-rule="nonzero" d="M26210 50831l35015 9436 36702 -9436c1064,-274 2114,-380 3134,-340 1087,44 2131,246 3117,584l1623 556 0 34885 -1614 563c-991,345 -2023,560 -3084,621 -1010,59 -2051,-22 -3110,-261l-36471 -8221 -35397 8221c-905,210 -1814,301 -2714,285 -954,-17 -1864,-149 -2719,-382l-1773 -482 0 -35578 1801 -470c880,-231 1795,-351 2734,-347l9 0c923,3 1843,123 2747,366zm34367 14229l-35606 -9595c-436,-118 -853,-187 -1249,-208l0 27683c428,-9 875,-65 1334,-172l36440 -8464 37547 8464c606,137 1209,183 1798,149l157 -11 0 -27625 -124 -7c-577,-23 -1169,38 -1765,191l-37941 9754 -591 -159z"/>
   <path fill="white" d="M11860 39209l2 0c5203,0 9459,4257 9459,9459l0 40915c0,5202 -4256,9459 -9459,9459l-2 0c-5203,0 -9459,-4257 -9459,-9459l0 -40915c0,-5202 4256,-9459 9459,-9459z"/>
   <path fill="#3BB163" fill-rule="nonzero" d="M11860 36808c3265,0 6232,1335 8380,3482 2147,2148 3482,5115 3482,8378l0 40915c0,3263 -1335,6230 -3482,8378 -2148,2148 -5115,3482 -8378,3482 -3265,0 -6232,-1334 -8380,-3482 -2147,-2148 -3482,-5115 -3482,-8378l0 -40915c0,-3263 1335,-6230 3482,-8378 2148,-2147 5115,-3482 8378,-3482zm2 4803c-1940,0 -3705,795 -4984,2075 -1280,1279 -2075,3044 -2075,4982l0 40915c0,1938 795,3703 2075,4983 1279,1279 3044,2075 4982,2075 1940,0 3705,-796 4984,-2075 1280,-1280 2075,-3045 2075,-4983l0 -40915c0,-1938 -795,-3703 -2075,-4982 -1279,-1280 -3044,-2075 -4982,-2075z"/>
   <path fill="white" d="M112858 39209l1 0c5203,0 9459,4257 9459,9459l0 40915c0,5202 -4256,9459 -9459,9459l-1 0c-5203,0 -9459,-4257 -9459,-9459l0 -40915c0,-5202 4256,-9459 9459,-9459z"/>
   <path fill="#3BB163" fill-rule="nonzero" d="M112858 36808c3265,0 6232,1335 8379,3482 2148,2148 3483,5115 3483,8378l0 40915c0,3263 -1335,6230 -3483,8378 -2147,2148 -5114,3482 -8378,3482 -3264,0 -6231,-1334 -8379,-3482 -2148,-2148 -3482,-5115 -3482,-8378l0 -40915c0,-3263 1334,-6230 3482,-8378 2148,-2147 5115,-3482 8378,-3482zm1 4803c-1939,0 -3704,795 -4984,2075 -1279,1279 -2074,3044 -2074,4982l0 40915c0,1938 795,3703 2074,4983 1280,1279 3045,2075 4983,2075 1940,0 3705,-796 4984,-2075 1280,-1280 2075,-3045 2075,-4983l0 -40915c0,-1938 -795,-3703 -2075,-4982 -1279,-1280 -3044,-2075 -4983,-2075z"/>
   <path fill="white" d="M49802 59283l22679 0c896,0 1628,732 1628,1628l0 16429c0,896 -732,1629 -1628,1629l-22679 0c-897,0 -1629,-733 -1629,-1629l0 -16429c0,-896 732,-1628 1629,-1628z"/>
   <path fill="#327FB3" fill-rule="nonzero" d="M49802 56881l22679 0c1111,0 2118,453 2847,1182 730,730 1183,1738 1183,2848l0 16429c0,1111 -453,2119 -1183,2848 -729,730 -1736,1182 -2847,1182l-22679 0c-1103,0 -2111,-454 -2843,-1186 -734,-725 -1187,-1733 -1187,-2844l0 -16429c0,-1111 453,-2118 1182,-2848 737,-727 1745,-1182 2848,-1182zm21906 4803l-21133 0 0 14883 21133 0 0 -14883z"/>
   <path fill="#327FB3" fill-rule="nonzero" d="M83700 71527c-1326,0 -2401,-1075 -2401,-2401 0,-1326 1075,-2402 2401,-2402l8113 0c1326,0 2401,1076 2401,2402 0,1326 -1075,2401 -2401,2401l-8113 0z"/>
   <path fill="#327FB3" fill-rule="nonzero" d="M32973 71527c-1326,0 -2402,-1075 -2402,-2401 0,-1326 1076,-2402 2402,-2402l8113 0c1326,0 2401,1076 2401,2402 0,1326 -1075,2401 -2401,2401l-8113 0z"/>
   <path fill="#327FB3" fill-rule="nonzero" d="M25929 14912c-575,-1191 -75,-2624 1116,-3199 1191,-575 2623,-75 3199,1116l9338 19372c575,1191 75,2623 -1116,3198 -1191,575 -2624,75 -3199,-1116l-9338 -19371z"/>
   <path fill="#327FB3" fill-rule="nonzero" d="M97423 13083c575,-1191 2007,-1691 3198,-1116 1191,575 1691,2007 1116,3198l-9338 19372c-575,1191 -2008,1691 -3199,1116 -1191,-575 -1691,-2008 -1116,-3199l9339 -19371z"/>
   <path fill="#327FB3" fill-rule="nonzero" d="M46057 103157c-1321,0 -2392,-1071 -2392,-2392 0,-1320 1071,-2392 2392,-2392l30168 -13c1320,0 2392,1071 2392,2392 0,1320 -1072,2392 -2392,2392l-30168 13z"/>
   <path fill="#327FB3" fill-rule="nonzero" d="M59947 2374c10,-1321 1090,-2384 2410,-2373 1320,10 2383,1090 2373,2410l-161 20219c-10,1320 -1090,2383 -2411,2373 -1320,-11 -2383,-1090 -2373,-2411l162 -20218z"/>
  </g>
 </g>
</svg>
