<?xml version="1.0" encoding="UTF-8"?>
<!DOCTYPE svg PUBLIC "-//W3C//DTD SVG 1.0//EN" "http://www.w3.org/TR/2001/REC-SVG-20010904/DTD/svg10.dtd">
<!-- Creator: CorelDRAW X8 -->
<svg xmlns="http://www.w3.org/2000/svg" xml:space="preserve" width="207px" height="263px" version="1.0" shape-rendering="geometricPrecision" text-rendering="geometricPrecision" image-rendering="optimizeQuality" fill-rule="evenodd" clip-rule="evenodd"
viewBox="0 0 23702 30033"
 xmlns:xlink="http://www.w3.org/1999/xlink">
 <g id="Слой_x0020_1">
  <metadata id="CorelCorpID_0Corel-Layer"/>
  <path fill="white" d="M506 8508l7778 0c-169,432 -261,901 -261,1393 0,492 92,961 261,1393l-7778 0 0 -2786zm14912 0l7778 0 0 2786 -7778 0c169,-432 261,-901 261,-1393 0,-492 -92,-961 -261,-1393z"/>
  <circle fill="white" cx="11851" cy="9901" r="3828"/>
  <path fill="white" d="M506 16610l15295 0c-169,432 -262,902 -262,1393 0,492 93,962 262,1394l-15295 0 0 -2787z"/>
  <circle fill="white" cx="19368" cy="18003" r="3828"/>
  <path fill="white" d="M7902 24305l8722 0 0 2787 -8722 0c168,-432 261,-902 261,-1394 0,-491 -93,-961 -261,-1393z"/>
  <circle fill="white" cx="4335" cy="25699" r="3828"/>
  <g id="_441402428368">
   <path fill="#327FB3" fill-rule="nonzero" d="M506 8002l8518 0 -269 690c-75,190 -132,388 -170,591 -37,196 -56,402 -56,618 0,215 19,422 56,617 38,204 95,402 170,592l269 691 -9024 0 0 -3799 506 0zm7103 1012l-6597 0 0 1774 6597 0 -17 -84c-49,-265 -76,-533 -76,-803 0,-270 26,-539 76,-803l17 -84zm7809 -1012l8284 0 0 3799 -9024 0 269 -691c75,-190 132,-388 170,-592 37,-195 56,-402 56,-617 0,-216 -19,-422 -56,-618 -38,-203 -95,-401 -170,-591l-269 -690 740 0zm7272 1012l-6597 0 17 84c50,264 76,533 76,803 0,270 -27,538 -76,803l-17 84 6597 0 0 -1774z"/>
   <path fill="#3BB163" fill-rule="nonzero" d="M11851 5566c1197,0 2281,486 3065,1270 784,784 1270,1868 1270,3065 0,1197 -486,2281 -1270,3065 -784,784 -1868,1270 -3065,1270 -1197,0 -2281,-486 -3065,-1270 -784,-784 -1270,-1868 -1270,-3065 0,-1197 486,-2281 1270,-3065 784,-784 1868,-1270 3065,-1270zm2349 1986c-601,-601 -1431,-973 -2349,-973 -917,0 -1748,372 -2349,973 -601,601 -973,1432 -973,2349 0,917 372,1748 973,2349 601,601 1432,973 2349,973 918,0 1748,-372 2349,-973 601,-601 973,-1432 973,-2349 0,-918 -372,-1748 -973,-2349z"/>
   <path fill="#327FB3" fill-rule="nonzero" d="M506 16104l16035 0 -270 690c-74,190 -132,389 -170,592 -36,195 -56,402 -56,617 0,216 20,422 56,618 38,203 96,402 170,592l270 690 -16541 0 0 -3799 506 0zm14619 1012l-14113 0 0 1774 14113 0 -17 -83c-49,-265 -75,-534 -75,-804 0,-269 26,-538 75,-803l17 -84z"/>
   <path fill="#3BB163" fill-rule="nonzero" d="M19368 13669c1196,0 2280,485 3064,1270 785,784 1270,1868 1270,3064 0,1197 -485,2281 -1270,3065 -784,785 -1868,1270 -3064,1270 -1197,0 -2281,-485 -3065,-1270 -785,-784 -1270,-1868 -1270,-3065 0,-1196 485,-2280 1270,-3064 784,-785 1868,-1270 3065,-1270zm2349 1985c-601,-601 -1432,-973 -2349,-973 -918,0 -1749,372 -2350,973 -601,601 -973,1432 -973,2349 0,918 372,1749 973,2350 601,601 1432,973 2350,973 917,0 1748,-372 2349,-973 601,-601 973,-1432 973,-2350 0,-917 -372,-1748 -973,-2349z"/>
   <path fill="#327FB3" fill-rule="nonzero" d="M7902 23799l9228 0 0 3799 -9969 0 270 -690c74,-190 132,-389 170,-592 37,-195 56,-402 56,-618 0,-215 -19,-422 -56,-617 -38,-203 -96,-402 -170,-592l-270 -690 741 0zm8216 1012l-7541 0 17 84c49,265 75,533 75,803 0,270 -26,539 -75,804l-17 84 7541 0 0 -1775z"/>
   <path fill="#3BB163" fill-rule="nonzero" d="M4335 21364c1196,0 2280,485 3065,1270 784,784 1269,1868 1269,3064 0,1197 -485,2281 -1269,3065 -785,785 -1869,1270 -3065,1270 -1197,0 -2281,-485 -3065,-1270 -785,-784 -1270,-1868 -1270,-3065 0,-1196 485,-2280 1270,-3064 784,-785 1868,-1270 3065,-1270zm2349 1985c-601,-601 -1432,-973 -2349,-973 -918,0 -1749,372 -2350,973 -601,601 -973,1432 -973,2349 0,918 372,1749 973,2350 601,601 1432,973 2350,973 917,0 1748,-372 2349,-973 601,-601 973,-1432 973,-2350 0,-917 -372,-1748 -973,-2349z"/>
   <path fill="#327FB3" fill-rule="nonzero" d="M17953 1041c121,-251 423,-356 674,-235 251,121 357,423 236,674l-1489 3088c-121,251 -423,356 -674,235 -251,-121 -357,-423 -235,-674l1488 -3088z"/>
   <path fill="#327FB3" fill-rule="nonzero" d="M11902 500c2,-278 230,-502 508,-500 278,2 502,230 500,508l-25 3223c-3,278 -230,502 -508,500 -279,-2 -503,-230 -501,-508l26 -3223z"/>
   <path fill="#327FB3" fill-rule="nonzero" d="M5425 1480c-122,-251 -16,-553 235,-674 251,-121 553,-16 674,235l1489 3088c121,251 15,553 -236,674 -251,121 -553,16 -674,-235l-1488 -3088z"/>
   <path fill="#327FB3" fill-rule="nonzero" d="M22953 25166c278,-4 507,219 510,498 3,278 -220,507 -498,510l-4388 58c-278,3 -506,-220 -510,-499 -3,-278 220,-507 499,-510l4387 -57z"/>
  </g>
 </g>
</svg>
