<?xml version="1.0" encoding="UTF-8"?>
<!DOCTYPE svg PUBLIC "-//W3C//DTD SVG 1.0//EN" "http://www.w3.org/TR/2001/REC-SVG-20010904/DTD/svg10.dtd">
<!-- Creator: CorelDRAW X8 -->
<svg xmlns="http://www.w3.org/2000/svg" xml:space="preserve" width="225px" height="220px" version="1.0" shape-rendering="geometricPrecision" text-rendering="geometricPrecision" image-rendering="optimizeQuality" fill-rule="evenodd" clip-rule="evenodd"
viewBox="0 0 40358 39419"
 xmlns:xlink="http://www.w3.org/1999/xlink">
 <g id="Слой_x0020_1">
  <metadata id="CorelCorpID_0Corel-Layer"/>
  <g id="_442346027792">
   <circle fill="white" cx="14364" cy="14364" r="13570"/>
   <path fill="#3BB163" fill-rule="nonzero" d="M14364 0c3966,0 7557,1608 10157,4207 2599,2599 4207,6191 4207,10157 0,1664 -283,3262 -804,4749l-1442 -690c427,-1275 659,-2640 659,-4059 0,-3528 -1430,-6723 -3742,-9035 -2312,-2312 -5507,-3742 -9035,-3742 -3528,0 -6723,1430 -9035,3742 -2312,2312 -3742,5507 -3742,9035 0,3529 1430,6723 3742,9035 2312,2312 5507,3742 9035,3742 1863,0 3633,-399 5229,-1115l684 1432c-1803,816 -3805,1270 -5913,1270 -3966,0 -7558,-1608 -10157,-4207 -2599,-2599 -4207,-6191 -4207,-10157 0,-3966 1608,-7558 4207,-10157 2599,-2599 6191,-4207 10157,-4207z"/>
   <path fill="#3BB163" fill-rule="nonzero" d="M17994 22699c-574,250 -1169,439 -1777,565 -614,128 -1235,193 -1853,193 -2511,0 -4785,-1018 -6430,-2663 -1646,-1645 -2664,-3919 -2664,-6430 0,-2511 1018,-4785 2664,-6430 1645,-1646 3919,-2664 6430,-2664 2511,0 4784,1018 6430,2664 1646,1645 2663,3919 2663,6430 0,476 -40,961 -119,1450 -77,477 -193,951 -347,1416l-1501 -496c127,-380 222,-771 286,-1168 63,-387 94,-789 94,-1202 0,-2073 -840,-3950 -2198,-5308 -1358,-1358 -3235,-2199 -5308,-2199 -2073,0 -3950,841 -5308,2199 -1358,1358 -2199,3235 -2199,5308 0,2073 841,3950 2199,5308 1358,1358 3235,2198 5308,2198 522,0 1035,-52 1531,-155 503,-105 994,-261 1466,-466l633 1450z"/>
   <path fill="#327FB3" d="M30853 35392l-3794 3794c-149,149 -351,233 -561,233 -45,0 -90,-4 -134,-11 -254,-44 -471,-208 -582,-440l-11977 -25044c-145,-302 -83,-667 154,-904 237,-236 601,-299 904,-154l25043 11978c233,111 397,328 440,582 43,253 -39,513 -221,695l-3794 3794 3794 3795c310,310 310,812 0,1122l-4355 4354c-310,310 -812,310 -1122,0l-3795 -3794z"/>
   <path fill="white" d="M35209 37504l3234 -3233 -3795 -3796c-149,-148 -232,-350 -232,-560 0,-211 83,-412 232,-561l3562 -3562 -22004 -10525 10524 22004 3562 -3561c150,-150 350,-233 561,-233 211,0 412,83 561,233l3795 3794z"/>
   <path fill="#327FB3" fill-rule="nonzero" d="M35772 715c436,-5 794,345 799,781 5,436 -344,795 -781,800l-6259 74c-436,5 -795,-344 -800,-781 -5,-436 345,-794 781,-799l6260 -75z"/>
   <path fill="#327FB3" fill-rule="nonzero" d="M38556 8452c436,-7 796,342 803,778 7,436 -342,796 -778,803l-6293 119c-436,7 -796,-341 -803,-778 -6,-436 342,-796 778,-802l6293 -120z"/>
   <path fill="#327FB3" fill-rule="nonzero" d="M36705 16041c436,-6 794,344 799,781 5,436 -344,794 -781,799l-6259 75c-436,5 -795,-345 -800,-781 -5,-436 345,-795 781,-800l6260 -74z"/>
  </g>
 </g>
</svg>
