<?xml version="1.0" encoding="UTF-8"?>
<!DOCTYPE svg PUBLIC "-//W3C//DTD SVG 1.0//EN" "http://www.w3.org/TR/2001/REC-SVG-20010904/DTD/svg10.dtd">
<!-- Creator: CorelDRAW X8 -->
<svg xmlns="http://www.w3.org/2000/svg" xml:space="preserve" width="232px" height="223px" version="1.0" shape-rendering="geometricPrecision" text-rendering="geometricPrecision" image-rendering="optimizeQuality" fill-rule="evenodd" clip-rule="evenodd"
viewBox="0 0 55180 53030"
 xmlns:xlink="http://www.w3.org/1999/xlink">
 <g id="Слой_x0020_1">
  <metadata id="CorelCorpID_0Corel-Layer"/>
  <g id="_442346027024">
   <rect fill="white" x="5325" y="32526" width="43874" height="19453"/>
   <path fill="#3BB163" fill-rule="nonzero" d="M5325 31475l7878 0 -512 1094c-69,143 -106,301 -106,461 0,194 55,384 154,548l-6362 0 0 17349 41771 0 0 -17349 -6259 0c99,-164 153,-354 153,-548 0,-160 -36,-318 -105,-461l-512 -1094 8826 0 0 21555 -45977 0 0 -21555 1051 0z"/>
   <path fill="#327FB3" d="M27643 0l-658 0 0 0 -970 0c-1333,12 -2517,858 -2961,2115l-1216 3436c-157,409 -550,678 -987,678 -152,0 -302,-33 -440,-96l-3279 -1533c-421,-197 -881,-300 -1346,-300 -844,0 -1654,336 -2249,934l-2062 2062c-598,596 -934,1405 -934,2249 0,465 103,925 300,1346l1533 3278c63,139 96,289 96,441 0,437 -269,830 -678,987l-3436 1216c-1257,444 -2103,1628 -2115,2961l0 2961c12,1333 858,2516 2115,2961l3436 1216c409,156 678,549 678,986 0,152 -33,303 -96,441l-1533 3278c-197,421 -300,881 -300,1347 0,843 336,1653 934,2248l2062 2062c595,598 1405,935 2249,935 465,0 925,-103 1346,-301l3278 -1533c139,-63 289,-96 441,-96 437,0 830,270 987,678l1216 3436c444,1257 1628,2103 2961,2115l970 0 658 0 970 0c1333,-12 2517,-858 2961,-2115l1216 -3436c157,-408 550,-678 987,-678 152,0 302,33 441,96l3278 1533c421,198 881,301 1346,301 844,0 1654,-337 2249,-935l2062 -2062c598,-595 934,-1405 934,-2248 0,-466 -103,-926 -300,-1347l-1533 -3278c-63,-138 -96,-289 -96,-441 0,-437 269,-830 678,-986l3436 -1216c1257,-445 2103,-1628 2115,-2961l0 -2961c-12,-1333 -858,-2517 -2115,-2961l-3436 -1216c-409,-157 -678,-550 -678,-987 0,-152 33,-302 96,-441l1533 -3278c197,-421 300,-881 300,-1346 0,-844 -336,-1653 -934,-2249l-2062 -2062c-595,-598 -1405,-934 -2249,-934 -465,0 -925,103 -1347,300l-3278 1533c-138,63 -288,96 -440,96 -437,0 -830,-269 -987,-678l-1216 -3436c-444,-1257 -1628,-2103 -2961,-2115l-970 0 0 0z" data-name="Compound Path"/>
   <path fill="white" d="M27643 40446l-658 0 -970 0c-5,0 -9,0 -14,0 -441,0 -836,-274 -991,-687l-1216 -3437c-452,-1259 -1647,-2099 -2985,-2099 -467,0 -928,104 -1350,302l-3278 1533c-144,69 -302,106 -461,106 -284,0 -556,-115 -755,-317l-2062 -2062c-203,-199 -318,-471 -318,-755 0,-160 37,-318 106,-461l1534 -3278c198,-423 301,-884 301,-1350 0,-1339 -840,-2533 -2099,-2986l-3436 -1216c-414,-154 -688,-549 -688,-990 0,-5 0,-10 0,-14l0 -2961c0,-5 0,-9 0,-14 0,-441 274,-836 687,-991l3437 -1216c1259,-452 2099,-1647 2099,-2985 0,-467 -103,-928 -301,-1350l-1534 -3278c-69,-144 -106,-302 -106,-461 0,-284 115,-556 318,-755l2062 -2062c199,-203 471,-317 755,-317 159,0 317,36 461,105l3278 1534c422,198 883,301 1350,301 1338,0 2533,-840 2985,-2099l1216 -3436c155,-414 550,-688 991,-688 5,0 9,0 14,0l970 0 658 0 970 0c5,0 10,0 14,0 441,0 837,274 991,688l1216 3436c452,1259 1647,2099 2985,2099 467,0 928,-103 1350,-301l3278 -1534c144,-69 302,-105 461,-105 284,0 556,114 755,317l2062 2062c203,199 317,471 317,755 0,159 -36,317 -105,461l-1534 3278c-198,422 -301,883 -301,1350 0,1338 840,2533 2099,2985l3437 1216c413,155 687,550 687,991 0,5 0,9 0,14l0 2961c0,4 0,9 0,14 0,441 -274,836 -688,990l-3436 1216c-1259,453 -2099,1647 -2099,2986 0,466 103,927 301,1350l1534 3278c69,143 105,301 105,461 0,284 -114,556 -317,755l-2062 2062c-199,202 -471,317 -755,317 -159,0 -317,-37 -461,-106l-3278 -1533c-422,-198 -883,-302 -1350,-302 -1338,0 -2533,840 -2985,2099l-1216 3437c-154,413 -550,687 -991,687 -4,0 -9,0 -14,0l-970 0z" data-name="Compound Path"/>
   <circle fill="white" cx="27314" cy="21254" r="6822"/>
   <path fill="#3BB163" fill-rule="nonzero" d="M27314 13380c2174,0 4143,882 5568,2307 1424,1424 2306,3393 2306,5567 0,2172 -882,4139 -2306,5564l-4 4c-1425,1424 -3393,2306 -5564,2306 -2174,0 -4143,-882 -5567,-2306 -1425,-1425 -2307,-3394 -2307,-5568 0,-2169 881,-4137 2307,-5563l4 -4c1426,-1425 3394,-2307 5563,-2307zm4081 3794c-1044,-1044 -2487,-1691 -4081,-1691 -1596,0 -3039,645 -4081,1687l-3 4c-1042,1041 -1687,2484 -1687,4080 0,1594 646,3037 1690,4081 1044,1044 2487,1690 4081,1690 1595,0 3039,-645 4083,-1688 1043,-1044 1688,-2488 1688,-4083 0,-1593 -646,-3037 -1690,-4080z"/>
   <path fill="#327FB3" fill-rule="nonzero" d="M829 12725c-567,-122 -927,-681 -805,-1248 122,-567 682,-928 1249,-805l8295 1802c567,122 927,682 805,1249 -122,567 -682,927 -1249,805l-8295 -1803z"/>
   <path fill="#327FB3" fill-rule="nonzero" d="M53907 10672c567,-123 1127,238 1249,805 122,567 -238,1126 -805,1248l-8295 1803c-567,122 -1127,-238 -1249,-805 -122,-567 238,-1127 805,-1249l8295 -1802z"/>
  </g>
 </g>
</svg>
