<?xml version="1.0" encoding="UTF-8"?>
<!DOCTYPE svg PUBLIC "-//W3C//DTD SVG 1.0//EN" "http://www.w3.org/TR/2001/REC-SVG-20010904/DTD/svg10.dtd">
<!-- Creator: CorelDRAW X8 -->
<svg xmlns="http://www.w3.org/2000/svg" xml:space="preserve" width="249px" height="238px" version="1.0" shape-rendering="geometricPrecision" text-rendering="geometricPrecision" image-rendering="optimizeQuality" fill-rule="evenodd" clip-rule="evenodd"
viewBox="0 0 51795 49545"
 xmlns:xlink="http://www.w3.org/1999/xlink">
 <g id="Слой_x0020_1">
  <metadata id="CorelCorpID_0Corel-Layer"/>
  <g id="_442346027856">
   <path fill="white" fill-rule="nonzero" d="M46201 31405c-234,791 153,2096 537,3392 566,1912 1130,3812 115,5205 -1031,1419 -3047,1468 -5058,1518 -1351,32 -2701,66 -3355,530 -632,464 -1078,1730 -1526,3002 -669,1899 -1343,3812 -3023,4357 -1617,527 -3236,-584 -4873,-1710l-46 -34c-1116,-767 -2241,-1531 -3083,-1531 -853,0 -1998,787 -3130,1565 -1638,1126 -3256,2238 -4873,1711l-56 -20c-1634,-568 -2296,-2451 -2954,-4326 -447,-1274 -893,-2544 -1536,-3010l-21 -15c-656,-466 -2002,-500 -3349,-533 -1998,-50 -3998,-101 -5025,-1500l-3 -4c-1017,-1402 -451,-3311 117,-5226 388,-1307 777,-2618 527,-3398 -236,-717 -1281,-1515 -2340,-2323 -1610,-1229 -3246,-2478 -3246,-4274 0,-1796 1636,-3045 3246,-4273 1059,-808 2104,-1606 2339,-2323l9 -27c234,-792 -153,-2096 -537,-3392 -567,-1914 -1131,-3817 -112,-5209l34 -44c1029,-1369 3009,-1420 4991,-1472 1355,-36 2712,-71 3370,-550l13 -9c624,-474 1066,-1728 1510,-2989 669,-1899 1343,-3812 3023,-4357 1617,-527 3235,585 4873,1710 1132,778 2277,1565 3130,1565 852,0 2005,-791 3144,-1572 1637,-1123 3252,-2231 4858,-1704l53 19c1649,566 2316,2456 2977,4335 448,1272 895,2538 1534,3002l21 15c656,466 2002,500 3349,533 1998,50 3998,101 5025,1500l3 4c1017,1402 450,3311 -118,5226 -387,1307 -776,2618 -526,3399 238,728 1288,1532 2349,2344 1607,1230 3237,2477 3237,4269 0,1796 -1637,3045 -3246,4274 -1059,808 -2104,1606 -2339,2323l-9 27zm-1230 3911c-463,-1561 -928,-3132 -530,-4453l16 -55c415,-1264 1686,-2234 2974,-3217 1248,-953 2517,-1922 2517,-2810 0,-885 -1263,-1852 -2508,-2805 -1291,-988 -2569,-1966 -2983,-3239l0 -4c-427,-1320 43,-2905 511,-4484 439,-1480 877,-2956 393,-3625 -497,-668 -2039,-707 -3579,-746 -1635,-41 -3268,-82 -4378,-873l-31 -21c-1104,-801 -1646,-2338 -2190,-3882 -512,-1456 -1028,-2921 -1832,-3205l-29 -9c-747,-245 -1990,608 -3251,1473 -1374,942 -2765,1897 -4182,1897 -1415,0 -2803,-954 -4176,-1898 -1258,-864 -2501,-1718 -3258,-1472l-3 0c-809,261 -1332,1745 -1851,3218 -536,1525 -1071,3041 -2141,3848l-39 30c-1113,809 -2761,853 -4408,895 -1525,40 -3051,81 -3559,733l-23 34c-480,655 -45,2123 393,3601 463,1561 928,3132 529,4453l-15 54c-415,1264 -1686,2235 -2974,3218 -1248,953 -2518,1922 -2518,2809 0,888 1270,1857 2518,2810 1288,983 2559,1953 2974,3217l0 4c426,1320 -43,2904 -512,4484 -439,1480 -876,2956 -392,3625 496,669 2039,707 3579,746 1634,41 3268,82 4378,874l30 20c1106,802 1648,2347 2193,3897 508,1450 1020,2906 1811,3190l30 9c757,246 2000,-607 3258,-1472 1373,-944 2761,-1897 4176,-1897 1395,0 2767,931 4124,1864l51 33c1258,864 2501,1718 3258,1472l3 0c809,-261 1332,-1745 1851,-3218 542,-1541 1083,-3074 2176,-3874l7 -4c1114,-800 2752,-840 4393,-880 1554,-38 3112,-77 3609,-760l3 -4c480,-655 44,-2124 -393,-3601z"/>
   <path fill="white" fill-rule="nonzero" d="M26777 12697l2707 8387 8824 -17c507,0 919,412 919,919 0,306 -150,578 -380,745l-7146 5174 2743 8386c157,484 -108,1004 -592,1161 -315,102 -646,26 -882,-175l-7073 -5159 -7129 5201c-410,298 -985,208 -1284,-203 -180,-247 -218,-554 -131,-824l-2 -1 2743 -8386 -7148 -5172c-412,-299 -504,-875 -206,-1288 194,-267 506,-400 813,-378l8758 17 2710 -8396c155,-484 674,-750 1158,-595 297,95 512,327 598,604zm1160 9589l-2040 -6320 -2040 6320c-120,370 -467,638 -876,638l-6644 -13 5382 3895c315,228 462,641 336,1031l-2066 6316 5356 -3907c315,-236 759,-252 1093,-8l5368 3915 -2057 -6289c-136,-376 -14,-812 326,-1058l5383 -3895 -6598 13c-407,21 -792,-232 -923,-638z"/>
  </g>
 </g>
</svg>
