<?xml version="1.0" encoding="UTF-8"?>
<!DOCTYPE svg PUBLIC "-//W3C//DTD SVG 1.0//EN" "http://www.w3.org/TR/2001/REC-SVG-20010904/DTD/svg10.dtd">
<!-- Creator: CorelDRAW X8 -->
<svg xmlns="http://www.w3.org/2000/svg" xml:space="preserve" width="228px" height="247px" version="1.0" shape-rendering="geometricPrecision" text-rendering="geometricPrecision" image-rendering="optimizeQuality" fill-rule="evenodd" clip-rule="evenodd"
viewBox="0 0 41080 44636"
 xmlns:xlink="http://www.w3.org/1999/xlink">
 <g id="Слой_x0020_1">
  <metadata id="CorelCorpID_0Corel-Layer"/>
  <path fill="white" fill-rule="nonzero" d="M1594 27808l20475 -22908c1132,-1266 2677,-1954 4255,-2043 1577,-89 3189,423 4456,1555l7328 6547c1244,1131 1921,2663 2009,4227 88,1577 -423,3189 -1555,4456l-20505 22941c-1131,1266 -2677,1955 -4255,2043 -1576,89 -3189,-423 -4455,-1555l-7329 -6547c-1244,-1130 -1921,-2663 -2008,-4227 -89,-1577 423,-3189 1555,-4455l29 -34zm21661 -21847l-20532 22976c-817,931 -1186,2113 -1121,3273 65,1172 575,2318 1512,3156l7294 6519c937,837 2134,1215 3307,1149 1172,-66 2319,-575 3156,-1512l20533 -22976c817,-930 1186,-2113 1121,-3272 -66,-1173 -575,-2319 -1512,-3157l-7294 -6519c-937,-837 -2134,-1215 -3307,-1149 -1172,66 -2319,575 -3157,1512z"/>
  <path fill="white" fill-rule="nonzero" d="M26612 11652c625,-699 1474,-1079 2340,-1127 866,-49 1751,234 2451,859l34 28c677,624 1046,1460 1094,2313 48,865 -234,1750 -859,2450l-29 34c-623,677 -1459,1046 -2312,1094 -865,48 -1751,-234 -2451,-860 -699,-624 -1079,-1474 -1127,-2340 -49,-865 234,-1751 859,-2451zm2428 465c-461,25 -911,227 -1242,597 -330,369 -479,840 -453,1301 25,461 227,911 597,1242 369,330 840,480 1301,454 461,-26 911,-227 1242,-597l28 -35c311,-363 451,-819 426,-1267 -26,-460 -227,-911 -597,-1241l-34 -29c-364,-311 -820,-450 -1268,-425z"/>
  <path fill="white" fill-rule="nonzero" d="M33081 0c982,0 1948,181 2853,527 899,343 1740,853 2477,1511 1647,1472 2541,3473 2656,5516 115,2041 -551,4129 -2023,5776 -979,1096 -2204,1865 -3526,2288 -1351,431 -2805,500 -4203,184l350 -1555c1122,254 2289,199 3373,-147 1056,-337 2035,-954 2819,-1831 1178,-1318 1710,-2990 1618,-4628 -92,-1637 -808,-3239 -2126,-4417 -583,-521 -1257,-928 -1984,-1205 -722,-276 -1496,-421 -2284,-421l0 -1598z"/>
  <path fill="white" fill-rule="nonzero" d="M21424 14173c245,-365 740,-463 1105,-218 366,245 464,740 219,1105l-7086 10529 6457 -43c439,-1 798,354 799,793 1,189 -64,362 -173,499l-8997 11338c-274,345 -776,402 -1121,128 -345,-274 -402,-776 -128,-1121l7964 -10034 -6273 42c-162,6 -328,-37 -473,-135 -366,-244 -464,-739 -219,-1105l7926 -11778z"/>
 </g>
</svg>
