<?xml version="1.0" encoding="UTF-8"?>
<!DOCTYPE svg PUBLIC "-//W3C//DTD SVG 1.0//EN" "http://www.w3.org/TR/2001/REC-SVG-20010904/DTD/svg10.dtd">
<!-- Creator: CorelDRAW X8 -->
<svg xmlns="http://www.w3.org/2000/svg" xml:space="preserve" width="262px" height="252px" version="1.0" shape-rendering="geometricPrecision" text-rendering="geometricPrecision" image-rendering="optimizeQuality" fill-rule="evenodd" clip-rule="evenodd"
viewBox="0 0 65637 63273"
 xmlns:xlink="http://www.w3.org/1999/xlink">
 <g id="Слой_x0020_1">
  <metadata id="CorelCorpID_0Corel-Layer"/>
  <g id="_441449014752">
   <path fill="white" fill-rule="nonzero" d="M56996 10966l0 11445 -22946 0c-549,0 -1046,219 -1403,570 -353,347 -573,826 -573,1352l0 19495c0,899 77,1762 224,2587 153,861 378,1677 666,2448l559 1497 -26118 0 0 -40505 49591 0 0 1111zm-2221 9224l0 -8114 -45149 0 0 36063 20785 0c-119,-441 -218,-888 -299,-1342 -169,-954 -259,-1944 -259,-2969l0 -19495c0,-1141 475,-2179 1241,-2931 761,-747 1808,-1212 2956,-1212l20725 0z"/>
   <path fill="white" fill-rule="nonzero" d="M1111 0l61809 0 0 12076 -62920 0 0 -12076 1111 0zm59588 2221l-58478 0 0 7634 58478 0 0 -7634z"/>
   <path fill="white" fill-rule="nonzero" d="M47753 60932c4371,-1575 8285,-3668 11109,-6448 2819,-2776 4554,-6267 4554,-10656l0 -19495c0,-526 -220,-1005 -573,-1352 -357,-351 -854,-570 -1403,-570l-27390 0c-549,0 -1046,219 -1403,570 -353,347 -573,826 -573,1352l0 19495c0,4030 1564,7375 4048,10077 2935,3193 7156,5515 11631,7027zm12662 -4869c-3153,3104 -7486,5396 -12288,7086l-354 124 -353 -115c-4935,-1616 -9638,-4172 -12930,-7753 -2845,-3095 -4637,-6937 -4637,-11577l0 -19495c0,-1141 476,-2179 1241,-2931 761,-747 1808,-1212 2956,-1212l27390 0c1149,0 2195,465 2956,1212 765,752 1241,1790 1241,2931l0 19495c0,5044 -1989,9052 -5222,12235z"/>
   <path fill="white" fill-rule="nonzero" d="M40996 43076c-297,-534 -105,-1209 430,-1505 534,-297 1208,-105 1505,429l1981 3550 7725 -10389c364,-491 1058,-594 1549,-230 491,364 594,1058 230,1549l-8747 11764c-91,123 -209,229 -352,308 -534,297 -1208,104 -1505,-430l-2816 -5046z"/>
  </g>
 </g>
</svg>
