<?xml version="1.0" encoding="UTF-8"?>
<!DOCTYPE svg PUBLIC "-//W3C//DTD SVG 1.0//EN" "http://www.w3.org/TR/2001/REC-SVG-20010904/DTD/svg10.dtd">
<!-- Creator: CorelDRAW X8 -->
<svg xmlns="http://www.w3.org/2000/svg" xml:space="preserve" width="270px" height="222px" version="1.0" shape-rendering="geometricPrecision" text-rendering="geometricPrecision" image-rendering="optimizeQuality" fill-rule="evenodd" clip-rule="evenodd"
viewBox="0 0 65062 53400"
 xmlns:xlink="http://www.w3.org/1999/xlink">
 <g id="Слой_x0020_1">
  <metadata id="CorelCorpID_0Corel-Layer"/>
  <circle fill="white" cx="20955" cy="44472" r="2258"/>
  <circle fill="white" cx="52168" cy="44472" r="2258"/>
  <g id="_442346029328">
   <path fill="white" fill-rule="nonzero" d="M64527 28022c55,42 107,88 155,137 239,245 380,565 380,919l0 12066c0,411 -188,771 -492,1021 -246,203 -572,329 -918,329l-4939 0 -275 -655c-522,-1240 -1403,-2294 -2513,-3032 -1074,-713 -2365,-1129 -3757,-1129 -1390,0 -2682,416 -3756,1130 -1110,737 -1991,1791 -2513,3031l-275 655 -4939 0c-2202,-453 -5941,-583 -8330,-820l7422 -1190 0 -26361 16931 0c379,0 675,132 915,334 193,162 311,342 399,518l4 0 6501 13047zm-1599 12338l0 -10765 -6646 -13338 -14371 0 0 24103 2337 0c700,-1348 1733,-2494 2989,-3328 1415,-940 3111,-1488 4931,-1488 1821,0 3517,548 4932,1488 1256,834 2289,1980 2989,3328l2839 0z"/>
   <path fill="white" fill-rule="nonzero" d="M52168 35544c2466,0 4698,1000 6313,2615 1616,1616 2615,3848 2615,6313 0,2465 -999,4698 -2615,6313 -1615,1616 -3847,2615 -6313,2615 -2464,0 -4697,-999 -6312,-2615 -1616,-1615 -2615,-3848 -2615,-6313 0,-2465 999,-4697 2615,-6313 1615,-1615 3848,-2615 6312,-2615zm4805 4124c-1229,-1229 -2928,-1990 -4805,-1990 -1876,0 -3575,761 -4804,1990 -1229,1229 -1989,2928 -1989,4804 0,1877 760,3575 1989,4805 1229,1229 2928,1989 4804,1989 1877,0 3576,-760 4805,-1989 1229,-1230 1989,-2928 1989,-4805 0,-1876 -760,-3575 -1989,-4804z"/>
   <path fill="white" fill-rule="nonzero" d="M4358 0l33195 0c1199,0 2289,490 3078,1279 790,789 1280,1880 1280,3079l0 36818c0,363 -148,693 -387,931 -238,239 -568,387 -932,387l-13092 0 -275 -655c-522,-1240 -1403,-2294 -2513,-3031 -1074,-714 -2366,-1130 -3756,-1130 -1392,0 -2683,416 -3756,1129 -1111,738 -1992,1792 -2514,3032l-275 655 -10053 0c-1199,0 -2290,-490 -3079,-1279l0 -4c-789,-790 -1279,-1879 -1279,-3076l0 -33777c0,-1199 490,-2290 1279,-3079 789,-789 1880,-1279 3079,-1279zm33195 2134l-33195 0c-611,0 -1167,251 -1570,654 -403,403 -654,959 -654,1570l0 33777c0,612 250,1170 652,1573 405,401 961,652 1572,652l8677 0c700,-1348 1733,-2494 2989,-3328 1415,-940 3111,-1488 4932,-1488 1820,0 3516,548 4931,1488 1256,834 2289,1980 2989,3328l10901 0 0 -36002c0,-611 -251,-1167 -654,-1570 -403,-403 -960,-654 -1570,-654z"/>
   <path fill="white" fill-rule="nonzero" d="M20956 35544c2464,0 4697,1000 6312,2615 1616,1616 2615,3848 2615,6313 0,2465 -999,4698 -2615,6313 -1615,1616 -3848,2615 -6312,2615 -2465,0 -4698,-999 -6313,-2615 -1616,-1615 -2615,-3848 -2615,-6313 0,-2465 999,-4697 2615,-6313 1615,-1615 3848,-2615 6313,-2615zm4804 4124c-1229,-1229 -2928,-1990 -4804,-1990 -1877,0 -3576,761 -4805,1990 -1229,1229 -1989,2928 -1989,4804 0,1877 760,3575 1989,4805 1229,1229 2928,1989 4805,1989 1876,0 3575,-760 4804,-1989 1229,-1230 1989,-2928 1989,-4805 0,-1876 -760,-3575 -1989,-4804z"/>
   <path fill="white" fill-rule="nonzero" d="M8451 17326c-1225,0 -1488,1781 -247,2105 86,19 165,30 254,30l17168 -56 -5385 3519 1167 1786 9781 -6390 -9822 -6323 -1155 1795 5405 3479 -17166 55z"/>
  </g>
 </g>
</svg>
