<?xml version="1.0" encoding="UTF-8"?>
<!DOCTYPE svg PUBLIC "-//W3C//DTD SVG 1.0//EN" "http://www.w3.org/TR/2001/REC-SVG-20010904/DTD/svg10.dtd">
<!-- Creator: CorelDRAW X8 -->
<svg xmlns="http://www.w3.org/2000/svg" xml:space="preserve" width="212px" height="242px" version="1.0" shape-rendering="geometricPrecision" text-rendering="geometricPrecision" image-rendering="optimizeQuality" fill-rule="evenodd" clip-rule="evenodd"
viewBox="0 0 33775 38482"
 xmlns:xlink="http://www.w3.org/1999/xlink">
 <g id="Слой_x0020_1">
  <metadata id="CorelCorpID_0Corel-Layer"/>
  <path fill="white" fill-rule="nonzero" d="M4297 5635c3108,-3478 7331,-5366 11645,-5608 4314,-242 8721,1162 12199,4271 3477,3108 5366,7331 5608,11645 242,4313 -1163,8721 -4271,12198 -2559,2863 -5872,4649 -9370,5326 -3441,666 -7064,258 -10323,-1254l-8651 6269 2240 -11462c-2356,-3136 -3490,-6931 -3364,-10704 127,-3817 1543,-7612 4287,-10681zm11723 -4203c-3957,221 -7828,1952 -10676,5139 -2515,2813 -3813,6291 -3930,9789 -118,3557 983,7135 3266,10053l199 255 -1676 8576 6438 -4666 381 189c3077,1524 6538,1952 9821,1317 3207,-621 6244,-2257 8588,-4879 2848,-3187 4135,-7228 3913,-11185 -222,-3956 -1953,-7827 -5140,-10676 -3186,-2848 -7228,-4134 -11184,-3912z"/>
  <path fill="white" fill-rule="nonzero" d="M23147 9437c80,-161 160,-321 160,-508 0,-508 -401,-882 -882,-882 -454,0 -641,267 -748,428l-10850 16889c-80,160 -160,321 -160,508 0,508 374,882 882,882 427,0 641,-294 721,-455l10877 -16862zm-7964 2699c0,1443 -1122,2592 -2592,2592 -1417,0 -2566,-1149 -2566,-2592 0,-1417 1149,-2566 2566,-2566 1470,0 2592,1149 2592,2566zm1523 0c0,-2245 -1870,-4089 -4088,-4089 -2245,0 -4089,1844 -4089,4089 0,2271 1844,4088 4089,4088 2218,0 4088,-1844 4088,-4088zm2031 10529c0,-1416 1149,-2592 2592,-2592 1417,0 2566,1176 2566,2592 0,1416 -1149,2592 -2566,2592 -1443,0 -2592,-1149 -2592,-2592zm-1496 0c0,2245 1844,4089 4088,4089 2219,0 4089,-1844 4089,-4089 0,-2272 -1870,-4089 -4089,-4089 -2244,0 -4088,1844 -4088,4089z"/>
 </g>
</svg>
